<?xml version="1.0" encoding="UTF-8"?>
<svg version="1.1" xmlns="http://www.w3.org/2000/svg" width="960" height="960">
<path d="M0 0 C316.8 0 633.6 0 960 0 C960 316.8 960 633.6 960 960 C643.2 960 326.4 960 0 960 C0 643.2 0 326.4 0 0 Z " fill="#303030" transform="translate(0,0)"/>
<path d="M0 0 C149.49 0 298.98 0 453 0 C453 316.8 453 633.6 453 960 C303.51 960 154.02 960 0 960 C0 897.83204901 0 897.83204901 17.6472702 878.40699577 C18.99679426 877.17352075 20.3642867 875.9593882 21.74987793 874.76657104 C23.30928961 873.35238133 24.86717259 871.93650448 26.4236908 870.51913071 C27.21260397 869.81099905 28.00151714 869.10286738 28.81433678 868.37327719 C32.92936127 864.61906589 36.87654646 860.69482493 40.84680176 856.78884888 C48.34923514 849.45639762 55.98426568 842.281326 63.68275881 835.15561402 C72.42737256 827.0472657 81.00310195 818.76897443 89.57128811 810.4750402 C102.90307631 797.57700848 116.31920865 784.7734473 129.87304688 772.10888672 C130.54335938 771.48204861 131.21367188 770.85521049 131.90429688 770.20937729 C133.79148391 768.44601416 135.68074829 766.68491595 137.57116699 764.92501831 C138.10816082 764.42399247 138.64515464 763.92296663 139.198421 763.40675819 C142.07677324 760.73498099 144.99765128 758.12619221 147.96777344 755.55661964 C151.77836357 752.23530837 155.38201339 748.75322217 158.94445801 745.16906738 C159.59493371 744.51874054 160.2454094 743.86841371 160.91559649 743.19837999 C163.0717663 741.04152154 165.22435082 738.8811216 167.37695312 736.72070312 C168.9314123 735.1643227 170.48610085 733.60817133 172.04100037 732.05223083 C175.37792862 728.71215124 178.71329914 725.37052669 182.04747009 722.0276947 C187.3235242 716.73807597 192.60342812 711.45231124 197.88391113 706.16711426 C205.28943099 698.75427184 212.69355744 691.34004075 220.09619141 683.92431641 C220.56507666 683.45460334 221.03396191 682.98489028 221.51705581 682.50094348 C224.84475397 679.16734566 228.17238482 675.83368065 231.5 672.5 C235.30122309 668.69184817 239.10247664 664.88372676 242.90380859 661.07568359 C243.37211588 660.60654818 243.84042316 660.13741277 244.32292157 659.65406114 C252.1456304 651.81764231 259.97034205 643.98322625 267.79641485 636.15016699 C273.04165607 630.89995387 278.28445153 625.64731443 283.52536774 620.39278412 C286.7898859 617.12078835 290.05649092 613.85088209 293.32365608 610.58152962 C294.83377104 609.06954822 296.34302409 607.5567054 297.85133171 606.04292107 C299.91707332 603.96991753 301.98592994 601.90007105 304.05554199 599.83093262 C304.64544308 599.23743657 305.23534417 598.64394052 305.84312105 598.03245974 C308.74441098 595.13822895 311.69866235 592.36711403 314.80902863 589.69806671 C319.73877652 585.34811178 324.35110109 580.64889891 329 576 C220.43 575.67 111.86 575.34 0 575 C0 489.2 0 403.4 0 315 C-80.19 315 -160.38 315 -243 315 C-236.26172811 307.1386828 -236.26172811 307.1386828 -232.94140625 303.87890625 C-232.22533203 303.17056641 -231.50925781 302.46222656 -230.77148438 301.73242188 C-229.30276891 300.28967839 -227.83401909 298.84696986 -226.36523438 297.40429688 C-225.64787109 296.69466797 -224.93050781 295.98503906 -224.19140625 295.25390625 C-223.55404541 294.62814697 -222.91668457 294.0023877 -222.26000977 293.35766602 C-220.42166067 291.43988085 -218.69968507 289.49264971 -216.97520447 287.47520447 C-212.58013317 282.44250675 -207.87323437 277.74835585 -203.13671875 273.0390625 C-202.16161057 272.06587802 -201.18673316 271.09246227 -200.21206665 270.11883545 C-198.12756579 268.03747389 -196.04152724 265.95767076 -193.95425415 263.87908936 C-190.64729549 260.58575873 -187.34424886 257.2885227 -184.04174805 253.99072266 C-176.43578771 246.39675745 -168.82480245 238.80783503 -161.21376038 231.21896362 C-154.23283584 224.25826984 -147.25300226 217.29649112 -140.27722263 210.33064079 C-137.00065805 207.05902914 -133.72167826 203.78986425 -130.44076538 200.52261353 C-128.39353145 198.48288948 -126.34841692 196.44105024 -124.30384445 194.39865875 C-122.91737976 193.01492928 -121.5283965 191.63372476 -120.13931274 190.25262451 C-115.84670025 185.96037188 -111.73007399 181.60132692 -107.77339172 176.99923706 C-104.30904604 173.09369933 -100.57290895 169.45204595 -96.87109375 165.7734375 C-95.98398712 164.88779114 -95.09688049 164.00214478 -94.18289185 163.08966064 C-92.26830796 161.178864 -90.35285475 159.26899097 -88.43582153 157.36065674 C-85.39769493 154.33617324 -82.36349417 151.30777113 -79.32983398 148.27880859 C-72.34311903 141.30408181 -65.35137627 134.33440231 -58.35957336 127.36477661 C-51.94595275 120.97139465 -45.53342841 114.57692299 -39.12495899 108.17837715 C-36.11600842 105.17437505 -33.10464534 102.17281991 -30.09133911 99.17318726 C-27.76852368 96.85965429 -25.44899361 94.54283077 -23.12890625 92.2265625 C-22.30480255 91.40762512 -21.48069885 90.58868774 -20.63162231 89.74493408 C-16.51671125 85.63039799 -12.55048299 81.45924724 -8.79624939 77.01156616 C-6.31432579 74.23213388 -3.63488031 71.63488031 -1 69 C-0.67 46.23 -0.34 23.46 0 0 Z " fill="#EA5D31" transform="translate(507,0)"/>
<path d="M0 0 C14.19 0 28.38 0 43 0 C43.48130571 16.7387431 43.48130571 16.7387431 43.5859375 23.94140625 C43.65735327 28.83413208 43.74128038 33.72413329 43.90527344 38.61474609 C44.03684564 42.56376857 44.10764198 46.5098678 44.13852692 50.46091461 C44.16049636 51.95865136 44.20340268 53.45624934 44.26876068 54.95272064 C44.53343489 61.27120857 44.73535932 67.30397425 40.49475098 72.39660645 C38.04265941 74.97457499 35.37976534 77.24000634 32.64809418 79.5129776 C30.16219044 81.75592863 28.06966836 84.3019453 25.89640427 86.84334946 C22.40413885 90.81486347 18.62095592 94.50020828 14.87109375 98.2265625 C13.98398712 99.11220886 13.09688049 99.99785522 12.18289185 100.91033936 C10.26830796 102.821136 8.35285475 104.73100903 6.43582153 106.63934326 C3.39769493 109.66382676 0.36349417 112.69222887 -2.67016602 115.72119141 C-9.65688097 122.69591819 -16.64862373 129.66559769 -23.64042664 136.63522339 C-30.05404725 143.02860535 -36.46657159 149.42307701 -42.87504101 155.82162285 C-45.88399158 158.82562495 -48.89535466 161.82718009 -51.90866089 164.82681274 C-54.23147632 167.14034571 -56.55100639 169.45716923 -58.87109375 171.7734375 C-60.1072493 173.00184357 -60.1072493 173.00184357 -61.36837769 174.25506592 C-64.84615854 177.73252985 -68.24719375 181.22408815 -71.45410156 184.95410156 C-75.6824754 189.86361758 -80.27055435 194.39460647 -84.86328125 198.9609375 C-85.83838943 199.93412198 -86.81326684 200.90753773 -87.78793335 201.88116455 C-89.87243421 203.96252611 -91.95847276 206.04232924 -94.04574585 208.12091064 C-97.35270451 211.41424127 -100.65575114 214.7114773 -103.95825195 218.00927734 C-111.56421229 225.60324255 -119.17519755 233.19216497 -126.78623962 240.78103638 C-133.76716416 247.74173016 -140.74699774 254.70350888 -147.72277737 261.66935921 C-150.99934195 264.94097086 -154.27832174 268.21013575 -157.55923462 271.47738647 C-159.60646855 273.51711052 -161.65158308 275.55894976 -163.69615555 277.60134125 C-165.08262024 278.98507072 -166.4716035 280.36627524 -167.86068726 281.74737549 C-169.12207016 283.00865265 -169.12207016 283.00865265 -170.40893555 284.29541016 C-171.13082565 285.01507965 -171.85271576 285.73474915 -172.59648132 286.47622681 C-175.84078962 289.88285659 -178.90218107 293.45963551 -182 297 C-190.415 305.415 -190.415 305.415 -199 314 C-79.21 314.495 -79.21 314.495 43 315 C43 400.8 43 486.6 43 575 C151.9 575 260.8 575 373 575 C369.25805678 579.36560043 365.66795479 583.46890138 361.625 587.5 C360.75101563 588.3765625 359.87703125 589.253125 358.9765625 590.15625 C356.80371227 592.27614161 354.54923403 594.27139425 352.24799347 596.25080109 C348.36571657 599.63817419 344.68659993 603.17774637 341.05554199 606.83093262 C340.40506629 607.48125946 339.7545906 608.13158629 339.08440351 608.80162001 C336.9282337 610.95847846 334.77564918 613.1188784 332.62304688 615.27929688 C331.0685877 616.8356773 329.51389915 618.39182867 327.95899963 619.94776917 C324.62207138 623.28784876 321.28670086 626.62947331 317.95252991 629.9723053 C312.6764758 635.26192403 307.39657188 640.54768876 302.11608887 645.83288574 C294.71056901 653.24572816 287.30644256 660.65995925 279.90380859 668.07568359 C279.43492334 668.54539666 278.96603809 669.01510972 278.48294419 669.49905652 C275.15524603 672.83265434 271.82761518 676.16631935 268.5 679.5 C264.69877691 683.30815183 260.89752336 687.11627324 257.09619141 690.92431641 C256.39373048 691.62801952 256.39373048 691.62801952 255.67707843 692.34593886 C247.8543696 700.18235769 240.02965795 708.01677375 232.20358515 715.84983301 C226.95834393 721.10004613 221.71554847 726.35268557 216.47463226 731.60721588 C213.2101141 734.87921165 209.94350908 738.14911791 206.67634392 741.41847038 C205.16622896 742.93045178 203.65697591 744.4432946 202.14866829 745.95707893 C200.08292668 748.03008247 198.01407006 750.09992895 195.94445801 752.16906738 C195.35455692 752.76256343 194.76465583 753.35605948 194.15687895 753.96754026 C190.5362294 757.5793804 186.7847863 760.98656996 182.91736639 764.33233523 C180.17351683 766.71884898 177.50541398 769.18199756 174.84364319 771.65927124 C174.27806668 772.18448164 173.71249018 772.70969203 173.12977499 773.25081789 C171.26190236 774.98741519 169.3963907 776.72651596 167.53149414 778.46630859 C166.54393946 779.38687011 166.54393946 779.38687011 165.53643417 780.32602882 C152.49958682 792.4884758 139.62422946 804.81599295 126.80701542 817.20937157 C118.66777932 825.07246597 110.4840632 832.8748149 102.16870117 840.55175781 C59.87055064 875.90448511 59.87055064 875.90448511 39.16174603 924.2856617 C38.6902169 936.54738667 40.38751881 948.04272785 43 960 C28.81 960 14.62 960 0 960 C-0.60163214 942.88245148 -0.60163214 942.88245148 -0.73242188 935.49414062 C-0.82156832 930.4823105 -0.92608921 925.47465013 -1.1315918 920.46606445 C-2.3602549 889.71553927 -2.3602549 889.71553927 5.04234314 881.49073792 C7.52594953 879.23583751 10.07138094 877.26753365 12.88424492 875.44137764 C20.67584596 870.13327765 27.1694647 862.96371621 33.78710938 856.31054688 C34.84896297 855.24677013 35.91104741 854.18322377 36.9733429 853.11988831 C39.24623101 850.84385819 41.51756085 848.56628874 43.78767395 846.28749084 C47.38345623 842.67809476 50.98313142 839.07259769 54.58337402 835.46765137 C62.22522647 827.81473637 69.86283635 820.15759372 77.5 812.5 C85.74722527 804.23071268 93.99519159 795.96217262 102.24806261 787.69851923 C105.82073552 784.12088915 109.39096188 780.54084134 112.95928192 776.95886993 C115.18584013 774.72480908 117.41450718 772.49286091 119.64372826 770.26145744 C120.6700802 769.23324665 121.69557413 768.2041785 122.72010231 767.17415047 C131.40726123 758.44186179 131.40726123 758.44186179 135.99327087 754.50672913 C141.22739058 750.01428227 146.03328145 745.09018391 150.89477539 740.20288086 C151.96810364 739.12762955 153.04166267 738.05260856 154.11543274 736.97779846 C156.41287785 734.67721121 158.70876479 732.37508452 161.00343513 730.07172966 C164.63675069 726.42480503 168.27395501 722.78177521 171.91172791 719.13929749 C179.63162885 711.40833366 187.34728436 703.67313917 195.0625 695.9375 C203.39724663 687.58069701 211.7327337 679.22464055 220.07311815 670.87346369 C223.68453555 667.25708355 227.29350527 663.63828412 230.90057957 660.01757228 C233.14894643 657.76171433 235.39941174 655.50795866 237.65043449 653.25475121 C238.68849268 652.2148308 239.72569104 651.17405124 240.76193237 650.1323204 C246.00977677 644.85756697 251.28240196 639.76234566 257 635 C259.72401694 632.39705048 261.91001907 630.13497139 264 627 C176.88 627 89.76 627 0 627 C0 540.87 0 454.74 0 366 C-106.26 366 -212.52 366 -322 366 C-320.35 364.35 -318.7 362.7 -317 361 C-315.69073512 359.68035301 -314.38211501 358.36006593 -313.07421875 357.0390625 C-311.6120367 355.56765116 -310.1497957 354.0962984 -308.6875 352.625 C-307.96626953 351.89539063 -307.24503906 351.16578125 -306.50195312 350.4140625 C-302.43740811 346.33129082 -298.27862087 342.45084047 -293.91333008 338.69287109 C-290.7986455 335.93706876 -287.90801741 332.97052888 -285 330 C-280.83599657 325.78762267 -276.64690482 321.72738408 -272.12109375 317.90234375 C-269.12860779 315.21847513 -266.32566741 312.35765911 -263.5 309.5 C-260.10993619 306.07155449 -256.74806043 302.67739301 -253.0625 299.5625 C-249.15730044 296.25427363 -245.59718832 292.63486507 -242 289 C-237.83353306 284.78989371 -233.64714598 280.7275879 -229.12109375 276.90234375 C-226.12860779 274.21847513 -223.32566741 271.35765911 -220.5 268.5 C-217.10993619 265.07155449 -213.74806043 261.67739301 -210.0625 258.5625 C-206.15730021 255.25427342 -202.59719074 251.63486259 -199 248 C-194.8549191 243.81155484 -190.69083638 239.7732928 -186.1875 235.96875 C-182.34703363 232.51233027 -178.76845378 228.78697405 -175.13500977 225.11547852 C-171.58542182 221.54301767 -167.96842121 218.15395599 -164.12109375 214.90234375 C-161.12860779 212.21847513 -158.32566741 209.35765911 -155.5 206.5 C-152.10993619 203.07155449 -148.74806043 199.67739301 -145.0625 196.5625 C-141.15730044 193.25427363 -137.59718832 189.63486507 -134 186 C-129.83353306 181.78989371 -125.64714598 177.7275879 -121.12109375 173.90234375 C-118.12860779 171.21847513 -115.32566741 168.35765911 -112.5 165.5 C-109.10993619 162.07155449 -105.74806043 158.67739301 -102.0625 155.5625 C-98.15730044 152.25427363 -94.59718832 148.63486507 -91 145 C-86.83353306 140.78989371 -82.64714598 136.7275879 -78.12109375 132.90234375 C-75.12860779 130.21847513 -72.32566741 127.35765911 -69.5 124.5 C-66.10993619 121.07155449 -62.74806043 117.67739301 -59.0625 114.5625 C-55.15730044 111.25427363 -51.59718832 107.63486507 -48 104 C-43.83353306 99.78989371 -39.64714598 95.7275879 -35.12109375 91.90234375 C-31.5241635 88.67636763 -28.17765814 85.19672515 -24.78149414 81.76196289 C-21.89539274 78.85572882 -18.99531683 76.03304767 -15.875 73.375 C-15.31337158 72.86364502 -14.75174316 72.35229004 -14.1730957 71.82543945 C-12 70 -12 70 -9.25708008 68.32543945 C-4.54806278 64.86471854 -1.59497944 61.86703677 -0.37646484 55.99536133 C0.50841758 47.65090813 0.37364688 39.27215043 0.21887207 30.89453125 C0.16634072 27.40824821 0.17623489 23.92214205 0.18164062 20.43554688 C0.18771302 13.62029053 0.09146611 6.81741616 0 0 Z " fill="#000000" transform="translate(464,0)"/>
</svg>
