<svg width="307" height="307" viewBox="0 0 307 307" fill="none" xmlns="http://www.w3.org/2000/svg">
<g clip-path="url(#clip0_127_2)">
<path d="M32.78 163.19C32.78 165.23 32.35 167.11 31.48 168.84C30.62 170.57 29.41 172.03 27.87 173.24C26.33 174.45 24.49 175.39 22.36 176.07C20.23 176.75 17.9 177.08 15.37 177.08C12.34 177.08 9.63 176.67 7.22 175.84C4.81 175.01 2.41 173.64 0 171.73L3.98 165.26C5.89 166.86 7.61 168.03 9.16 168.77C10.7 169.51 12.27 169.88 13.88 169.88C15.86 169.88 17.44 169.38 18.65 168.35C19.86 167.32 20.45 165.95 20.45 164.22C20.45 163.48 20.34 162.78 20.12 162.13C19.9 161.48 19.51 160.82 18.92 160.13C18.34 159.45 17.54 158.71 16.51 157.91C15.5 157.11 14.19 156.12 12.58 154.94C11.35 154.07 10.14 153.18 8.98 152.26C7.8 151.33 6.75 150.35 5.79 149.29C4.84 148.24 4.07 147.07 3.48 145.77C2.9 144.47 2.6 142.99 2.6 141.33C2.6 139.42 3 137.66 3.8 136.09C4.6 134.51 5.69 133.17 7.08 132.07C8.46 130.95 10.12 130.09 12.07 129.48C14.01 128.87 16.11 128.55 18.4 128.55C20.81 128.55 23.13 128.88 25.38 129.51C27.63 130.16 29.71 131.09 31.63 132.32L28.02 138.14C25.55 136.41 22.96 135.55 20.24 135.55C18.58 135.55 17.2 135.98 16.12 136.85C15.03 137.72 14.5 138.8 14.5 140.1C14.5 141.4 14.97 142.45 15.93 143.44C16.88 144.43 18.52 145.82 20.86 147.61C23.21 149.34 25.17 150.86 26.72 152.16C28.27 153.46 29.49 154.68 30.39 155.83C31.29 156.98 31.91 158.13 32.25 159.31C32.59 160.49 32.76 161.78 32.76 163.2H32.79L32.78 163.19ZM86.67 151.81C86.67 155.45 86.12 158.8 84.99 161.86C83.87 164.92 82.33 167.58 80.34 169.87C78.35 172.16 76.01 173.93 73.28 175.19C70.56 176.45 67.62 177.08 64.45 177.08C63.03 177.08 61.7 176.96 60.46 176.71C59.22 176.46 58.04 176.04 56.93 175.46C55.82 174.88 54.72 174.12 53.63 173.19C52.54 172.26 51.42 171.12 50.24 169.76V199.11H38.34V129.68H50.24L50.3 136.44C52.47 133.73 54.82 131.73 57.34 130.47C59.88 129.2 62.82 128.58 66.16 128.58C69.19 128.58 71.96 129.15 74.45 130.29C76.96 131.43 79.12 133.02 80.94 135.06C82.76 137.1 84.17 139.53 85.16 142.38C86.15 145.22 86.64 148.37 86.64 151.82H86.66L86.67 151.81ZM73.73 152.29C73.73 147.22 72.71 143.22 70.65 140.28C68.6 137.34 65.81 135.88 62.26 135.88C58.53 135.88 55.57 137.44 53.4 140.56C51.23 143.68 50.13 147.9 50.13 153.21C50.13 158.52 51.21 162.48 53.34 165.45C55.47 168.42 58.43 169.9 62.16 169.9C64.39 169.9 66.25 169.33 67.71 168.19C69.17 167.04 70.35 165.59 71.25 163.83C72.15 162.07 72.79 160.15 73.16 158.09C73.53 156.02 73.72 154.09 73.72 152.29H73.71H73.73ZM91.96 175.96H104.17V108H91.96V175.95V175.96ZM156.33 175.98V129.62H144.12V154.57C144.12 156.79 144.03 158.51 143.84 159.72C143.66 160.93 143.34 162.02 142.91 163.02C141.18 166.85 138.02 168.77 133.42 168.77C129.83 168.77 127.31 167.47 125.88 164.87C125.32 163.89 124.93 162.77 124.71 161.53C124.49 160.29 124.38 158.5 124.38 156.14V129.62H112.17V155.96C112.17 157.75 112.19 159.27 112.22 160.51C112.25 161.75 112.33 162.84 112.46 163.81C112.58 164.77 112.73 165.62 112.88 166.36C113.03 167.1 113.27 167.81 113.58 168.49C114.7 171.34 116.5 173.49 119.01 174.94C121.52 176.39 124.59 177.11 128.23 177.11C131.51 177.11 134.38 176.54 136.86 175.4C139.34 174.25 141.74 172.39 144.1 169.79L144.13 175.99H156.34V175.97H156.33V175.98ZM209 175.96V149.68C209 147.89 208.98 146.36 208.95 145.1C208.92 143.83 208.85 142.75 208.71 141.81C208.59 140.89 208.43 140.07 208.25 139.36C208.07 138.65 207.85 137.96 207.6 137.27C206.48 134.5 204.68 132.36 202.17 130.84C199.66 129.32 196.59 128.57 192.93 128.57C189.65 128.57 186.78 129.14 184.3 130.29C181.82 131.44 179.42 133.31 177.06 135.9L177.04 129.7H164.72V175.96H177.04V150.99C177.04 148.83 177.12 147.15 177.28 145.95C177.44 144.75 177.73 143.63 178.17 142.57C178.97 140.72 180.2 139.31 181.85 138.36C183.5 137.41 185.46 136.93 187.76 136.93C191.35 136.93 193.87 138.23 195.3 140.81C195.85 141.79 196.24 142.91 196.46 144.14C196.68 145.37 196.79 147.16 196.79 149.51V175.97H209V175.96ZM259.57 172.91L240.96 149.77L256.7 132.92L247.44 128.94L231.06 147.91H229.76V108H217.44V175.95H229.76V151.33L248.18 176.88L259.57 172.9H259.58L259.57 172.91ZM307.17 156.3V148.72L270.14 130.14V138.46L298.84 152.43L270.14 166.58V174.72L307.17 156.32V156.3Z" fill="#ED017F"/>
</g>
<defs>
<clipPath id="clip0_127_2">
<rect width="307" height="307" fill="white"/>
</clipPath>
</defs>
</svg>
