<?xml version="1.0" encoding="UTF-8"?>
<svg version="1.1" xmlns="http://www.w3.org/2000/svg" width="210" height="201">
<path d="M0 0 C1.52615165 3.05230329 0.87327005 5.74986938 0.625 9.125 C0.48964844 11.04699219 0.48964844 11.04699219 0.3515625 13.0078125 C-0.00132164 17.01500794 -0.50104505 21.00836043 -1 25 C38.93 25.33 78.86 25.66 120 26 C121 31 121 31 118.9375 34.26953125 C117.9743422 35.46361282 116.9941779 36.64411905 116 37.8125 C115.4946875 38.42762451 114.989375 39.04274902 114.46875 39.67651367 C112.99341937 41.46351731 111.49850489 43.23242656 110 45 C109.278125 45.8765625 108.55625 46.753125 107.8125 47.65625 C103.4454698 52.85151007 103.4454698 52.85151007 100 54 C97 52 97 52 96.46875 49.83203125 C97.26885099 45.56678698 99.75723561 42.95927423 102.5 39.6875 C103.02464844 39.04232422 103.54929688 38.39714844 104.08984375 37.73242188 C105.38241974 36.14607861 106.68979806 34.57181694 108 33 C107.40308885 33.00092179 106.80617769 33.00184359 106.19117832 33.00279331 C91.68687155 33.02484917 77.18256628 33.04141186 62.6782465 33.05181217 C55.66415366 33.05697498 48.650072 33.06401739 41.63598633 33.07543945 C34.87331932 33.08644688 28.11066636 33.09227619 21.34799004 33.09487724 C18.7614772 33.09673203 16.17496503 33.10035367 13.58845711 33.10573006 C9.97961145 33.11293651 6.37081453 33.11399111 2.76196289 33.11352539 C1.6808725 33.11712067 0.5997821 33.12071594 -0.5140686 33.12442017 C-1.49148514 33.1230455 -2.46890167 33.12167084 -3.47593689 33.12025452 C-4.33043899 33.12117631 -5.18494108 33.1220981 -6.06533718 33.12304783 C-8 33 -8 33 -9 32 C-9.34201376 25.72974776 -8.40055535 20.10241975 -7 14 C-11.31304198 17.74680462 -15.58773926 21.52877783 -19.8125 25.375 C-23.3184245 28.54216185 -26.89379821 31.58552271 -30.5625 34.5625 C-34.14743297 37.47334301 -37.7005339 40.40963288 -41.1875 43.4375 C-41.92355469 44.07558594 -42.65960938 44.71367188 -43.41796875 45.37109375 C-45.23223661 46.86066476 -45.23223661 46.86066476 -45 49 C-43.52931586 50.30863371 -41.99398682 51.5446856 -40.4375 52.75 C-35.57402815 56.63076261 -31.01339989 60.71888209 -26.5 65 C-20.54800867 70.63354084 -14.44753175 75.93312474 -8 81 C-8.165 79.865625 -8.33 78.73125 -8.5 77.5625 C-9.0494204 73.09547328 -9.54891429 68.48435062 -9 64 C-3.49609608 58.49609608 10.39987835 60.82027783 17.65234375 60.796875 C18.33448 60.79404762 19.01661625 60.79122025 19.71942329 60.78830719 C23.31498715 60.77344431 26.91051206 60.76412819 30.50610352 60.75976562 C34.21395571 60.7542361 37.92144896 60.73007901 41.62918758 60.70179367 C44.49189839 60.68320181 47.35452098 60.67796401 50.21728706 60.67642975 C51.58525156 60.6734052 52.95321457 60.66538327 54.32111931 60.65224457 C56.22564307 60.63522557 58.13031799 60.63890311 60.03491211 60.64355469 C61.65845863 60.63808624 61.65845863 60.63808624 63.31480408 60.63250732 C66 61 66 61 67.83863831 62.38140869 C69 64 69 64 69.546875 66.25390625 C68.70730079 70.46976817 66.11753208 72.84114546 63.25 75.9375 C62.04894865 77.27686821 60.84843975 78.61672302 59.6484375 79.95703125 C59.03709961 80.6320166 58.42576172 81.30700195 57.79589844 82.00244141 C55.10250555 84.99827347 52.4875652 88.05873255 49.875 91.125 C49.38225586 91.70048584 48.88951172 92.27597168 48.38183594 92.86889648 C44.62326357 97.25905253 40.88857688 101.66917476 37.16162109 106.08618164 C34.70351524 108.99667506 32.23399161 111.89670856 29.75 114.78515625 C29.20794922 115.41550781 28.66589844 116.04585938 28.10742188 116.6953125 C27.06298669 117.90853247 26.01747358 119.12082559 24.97070312 120.33203125 C22.53538637 123.1605674 20.24231553 126.01024596 18 129 C36.48 129.33 54.96 129.66 74 130 C73.67 129.34 73.34 128.68 73 128 C72.46053121 124.51728239 72.15760827 121.00667064 71.8125 117.5 C71.65104492 116.03626953 71.65104492 116.03626953 71.48632812 114.54296875 C71.39416016 113.61097656 71.30199219 112.67898437 71.20703125 111.71875 C71.1191333 110.86216797 71.03123535 110.00558594 70.94067383 109.12304688 C71 107 71 107 73 105 C76.84637708 105.3011845 78.90811264 106.3954548 81.6875 109 C82.71810547 109.94746094 82.71810547 109.94746094 83.76953125 110.9140625 C84.50558594 111.60242188 85.24164063 112.29078125 86 113 C87.62279774 114.46078356 89.2478855 115.91902627 90.875 117.375 C93.44372701 119.69158203 96.01091774 122.00985905 98.578125 124.328125 C102.97134512 128.29010879 107.3870655 132.22018348 111.8515625 136.1015625 C115.47529254 139.30362213 119.02515323 142.58734141 122.58203125 145.86328125 C125.0028246 148.0996055 125.0028246 148.0996055 128 150 C128.6875 152.6875 128.6875 152.6875 128 156 C125.63569072 158.68611804 122.78751325 160.7699894 120 163 C118.1558371 164.65467583 116.32294405 166.32197619 114.5 168 C110.73649479 171.43264761 106.93870649 174.8155501 103.09375 178.15625 C100.53580973 180.40876457 98.0182102 182.70317092 95.5 185 C91.6048339 188.54988822 87.70400338 192.08815799 83.70703125 195.5234375 C82.21289424 196.81584892 80.75896686 198.15444944 79.3125 199.5 C77 201 77 201 74.25 200.8125 C72 200 72 200 71 199 C71.14225697 194.65469615 71.59805632 190.32824723 72 186 C72.12761719 184.61748047 72.12761719 184.61748047 72.2578125 183.20703125 C72.85659509 177.28680982 72.85659509 177.28680982 74 175 C73.37732018 175.00092179 72.75464037 175.00184359 72.11309147 175.00279331 C56.9828931 175.02484882 41.85269964 175.04141168 26.72248936 175.05181217 C19.40572598 175.05697506 12.0889733 175.06401762 4.7722168 175.07543945 C-1.60283018 175.08538651 -7.97786941 175.09185348 -14.35292393 175.09408849 C-17.73048014 175.09539557 -21.10801416 175.09848119 -24.48556328 175.10573006 C-28.25007343 175.11293613 -32.01453685 175.11399113 -35.77905273 175.11352539 C-37.47081886 175.1189183 -37.47081886 175.1189183 -39.19676208 175.12442017 C-40.72599304 175.12235817 -40.72599304 175.12235817 -42.28611755 175.12025452 C-43.17749137 175.12117631 -44.06886518 175.1220981 -44.98725033 175.12304783 C-47 175 -47 175 -48 174 C-47.78347479 167.75943422 -45.79606159 164.81633167 -41.75 160.4375 C-40.78629625 159.35300859 -39.82275374 158.26837388 -38.859375 157.18359375 C-38.38306641 156.66007324 -37.90675781 156.13655273 -37.41601562 155.59716797 C-35.99399369 153.9932253 -34.66256745 152.3372123 -33.328125 150.66015625 C-31 148 -31 148 -28 147 C-27.01 147.33 -26.02 147.66 -25 148 C-24.44113081 152.12801109 -24.96962277 154.38633357 -27.40625 157.6484375 C-28.42282969 158.9026592 -29.45461616 160.14468339 -30.5 161.375 C-31.02464844 162.01566406 -31.54929687 162.65632812 -32.08984375 163.31640625 C-33.38024675 164.88835172 -34.68841387 166.44568526 -36 168 C-35.10463327 167.99861731 -35.10463327 167.99861731 -34.19117832 167.99720669 C-19.68687155 167.97515083 -5.18256628 167.95858814 9.3217535 167.94818783 C16.33584634 167.94302502 23.349928 167.93598261 30.36401367 167.92456055 C37.12668068 167.91355312 43.88933364 167.90772381 50.65200996 167.90512276 C53.2385228 167.90326797 55.82503497 167.89964633 58.41154289 167.89426994 C62.02038855 167.88706349 65.62918547 167.88600889 69.23803711 167.88647461 C70.3191275 167.88287933 71.4002179 167.87928406 72.5140686 167.87557983 C73.49148514 167.8769545 74.46890167 167.87832916 75.47593689 167.87974548 C76.33043899 167.87882369 77.18494108 167.8779019 78.06533718 167.87695217 C80 168 80 168 81 169 C81.53082683 175.33288752 80.79636549 180.93726645 79 187 C86.14728635 181.38321364 92.83360766 175.43693661 99.41650391 169.17773438 C104.10372401 164.74950999 108.95456784 160.73268142 114.12109375 156.8671875 C114.74113281 156.25101563 115.36117187 155.63484375 116 155 C116.44082802 151.0462265 116.44082802 151.0462265 114.19921875 148.95703125 C113.37035156 148.24933594 112.54148438 147.54164063 111.6875 146.8125 C110.76710937 146.0184375 109.84671875 145.224375 108.8984375 144.40625 C106.22167217 142.18402972 103.52271717 139.9936958 100.8125 137.8125 C93.52533955 131.92832734 86.79116861 125.44290355 80 119 C80.23396484 120.80597656 80.23396484 120.80597656 80.47265625 122.6484375 C80.66959135 124.2239183 80.86618844 125.79944138 81.0625 127.375 C81.16626953 128.1690625 81.27003906 128.963125 81.37695312 129.78125 C82.11328125 135.7734375 82.11328125 135.7734375 81 138 C72.10113141 140.54281003 62.66627653 140.31113148 53.49609375 140.30078125 C52.04069397 140.30467844 50.58529531 140.30901518 49.12989807 140.31376648 C46.10698724 140.32116309 43.08419341 140.32098164 40.0612793 140.31567383 C36.18755091 140.30982832 32.31429282 140.32696251 28.44064236 140.3500185 C25.44752712 140.36472373 22.45452686 140.36563299 19.46138191 140.36250877 C18.03202429 140.36302166 16.60266019 140.36825342 15.17333794 140.37832069 C13.1851758 140.39063023 11.19691702 140.38197122 9.20874023 140.37231445 C8.07911362 140.37294388 6.949487 140.3735733 5.78562927 140.3742218 C3 140 3 140 1.10804749 138.65763855 C0 137 0 137 0.0625 134.10546875 C1.13611263 130.54912692 2.41635383 128.95445763 5 126.3125 C8.226449 122.90342181 11.30948447 119.47180821 14.25 115.8125 C17.85470435 111.36147376 21.55378264 107.00808748 25.3125 102.6875 C25.86212402 102.05545654 26.41174805 101.42341309 26.97802734 100.7722168 C28.09570513 99.48749034 29.21354412 98.2029041 30.33154297 96.91845703 C33.0201313 93.82701321 35.70094432 90.72902029 38.375 87.625 C38.83817627 87.09092529 39.30135254 86.55685059 39.77856445 86.0065918 C43.6984171 81.44961464 47.29408495 76.76474792 51 72 C33.84 72 16.68 72 -1 72 C-0.34 77.28 0.32 82.56 1 88 C1 89.98 1 91.96 1 94 C0.34 94.66 -0.32 95.32 -1 96 C-5.86271912 95.8824213 -8.51796129 93.10151145 -11.8125 89.875 C-12.87956257 88.86260019 -13.94727076 87.85088041 -15.015625 86.83984375 C-15.52931641 86.3485498 -16.04300781 85.85725586 -16.57226562 85.35107422 C-18.35850738 83.66074216 -20.19952281 82.04258572 -22.0625 80.4375 C-25.25244609 77.6719958 -28.38092989 74.84524228 -31.5 72 C-34.64083556 69.13528185 -37.79100756 66.28814098 -41 63.5 C-41.61746094 62.95601562 -42.23492187 62.41203125 -42.87109375 61.8515625 C-44.55377823 60.38809013 -46.2592903 58.95086721 -47.97265625 57.5234375 C-49.00306263 56.64116016 -50.03301274 55.75834965 -51.0625 54.875 C-52.02285156 54.06804688 -52.98320313 53.26109375 -53.97265625 52.4296875 C-56 50 -56 50 -56.03125 47.4375 C-54.85955037 44.66802814 -53.6210138 43.18459618 -51.4375 41.125 C-50.71046875 40.4340625 -49.9834375 39.743125 -49.234375 39.03125 C-46.58540851 36.62309864 -43.91281333 34.24913996 -41.19921875 31.9140625 C-38.59608118 29.64845431 -36.04841276 27.32696448 -33.5 25 C-29.71743782 21.55042816 -25.90436031 18.1453499 -22.0390625 14.7890625 C-18.78838227 11.9369331 -15.59366017 9.02298978 -12.39453125 6.11328125 C-4.84079113 -0.55323327 -4.84079113 -0.55323327 0 0 Z " fill="#000000" transform="translate(69,0)"/>
<path d="M0 0 C3.84637708 0.3011845 5.90811264 1.3954548 8.6875 4 C9.71810547 4.94746094 9.71810547 4.94746094 10.76953125 5.9140625 C11.50558594 6.60242188 12.24164063 7.29078125 13 8 C14.62279774 9.46078356 16.2478855 10.91902627 17.875 12.375 C20.44372701 14.69158203 23.01091774 17.00985905 25.578125 19.328125 C29.97134512 23.29010879 34.3870655 27.22018348 38.8515625 31.1015625 C42.47529254 34.30362213 46.02515323 37.58734141 49.58203125 40.86328125 C52.0028246 43.0996055 52.0028246 43.0996055 55 45 C55.6875 47.6875 55.6875 47.6875 55 51 C52.63569072 53.68611804 49.78751325 55.7699894 47 58 C45.1558371 59.65467583 43.32294405 61.32197619 41.5 63 C37.73649479 66.43264761 33.93870649 69.8155501 30.09375 73.15625 C27.53580973 75.40876457 25.0182102 77.70317092 22.5 80 C18.6048339 83.54988822 14.70400338 87.08815799 10.70703125 90.5234375 C9.21289424 91.81584892 7.75896686 93.15444944 6.3125 94.5 C4 96 4 96 1.25 95.8125 C-1 95 -1 95 -2 94 C-1.85774303 89.65469615 -1.40194368 85.32824723 -1 81 C-0.91492188 80.07832031 -0.82984375 79.15664062 -0.7421875 78.20703125 C-0.14340491 72.28680982 -0.14340491 72.28680982 1 70 C0.37732018 70.00092179 -0.24535963 70.00184359 -0.88690853 70.00279331 C-16.0171069 70.02484882 -31.14730036 70.04141168 -46.27751064 70.05181217 C-53.59427402 70.05697506 -60.9110267 70.06401762 -68.2277832 70.07543945 C-74.60283018 70.08538651 -80.97786941 70.09185348 -87.35292393 70.09408849 C-90.73048014 70.09539557 -94.10801416 70.09848119 -97.48556328 70.10573006 C-101.25007343 70.11293613 -105.01453685 70.11399113 -108.77905273 70.11352539 C-109.90689682 70.11712067 -111.03474091 70.12071594 -112.19676208 70.12442017 C-113.72599304 70.12235817 -113.72599304 70.12235817 -115.28611755 70.12025452 C-116.17749137 70.12117631 -117.06886518 70.1220981 -117.98725033 70.12304783 C-120 70 -120 70 -121 69 C-120.78347479 62.75943422 -118.79606159 59.81633167 -114.75 55.4375 C-113.78629625 54.35300859 -112.82275374 53.26837388 -111.859375 52.18359375 C-111.14491211 51.39831299 -111.14491211 51.39831299 -110.41601562 50.59716797 C-108.99399369 48.9932253 -107.66256745 47.3372123 -106.328125 45.66015625 C-104 43 -104 43 -101 42 C-99.515 42.495 -99.515 42.495 -98 43 C-97.44113081 47.12801109 -97.96962277 49.38633357 -100.40625 52.6484375 C-101.42282969 53.9026592 -102.45461616 55.14468339 -103.5 56.375 C-104.02464844 57.01566406 -104.54929687 57.65632813 -105.08984375 58.31640625 C-106.38024675 59.88835172 -107.68841387 61.44568526 -109 63 C-108.40308885 62.99907821 -107.80617769 62.99815641 -107.19117832 62.99720669 C-92.68687155 62.97515083 -78.18256628 62.95858814 -63.6782465 62.94818783 C-56.66415366 62.94302502 -49.650072 62.93598261 -42.63598633 62.92456055 C-35.87331932 62.91355312 -29.11066636 62.90772381 -22.34799004 62.90512276 C-19.7614772 62.90326797 -17.17496503 62.89964633 -14.58845711 62.89426994 C-10.97961145 62.88706349 -7.37081453 62.88600889 -3.76196289 62.88647461 C-2.6808725 62.88287933 -1.5997821 62.87928406 -0.4859314 62.87557983 C0.98019341 62.87764183 0.98019341 62.87764183 2.47593689 62.87974548 C3.33043899 62.87882369 4.18494108 62.8779019 5.06533718 62.87695217 C7 63 7 63 8 64 C8.53082683 70.33288752 7.79636549 75.93726645 6 82 C13.14728635 76.38321364 19.83360766 70.43693661 26.41650391 64.17773438 C31.10372401 59.74950999 35.95456784 55.73268142 41.12109375 51.8671875 C41.74113281 51.25101563 42.36117187 50.63484375 43 50 C43.44082802 46.0462265 43.44082802 46.0462265 41.19921875 43.95703125 C40.37035156 43.24933594 39.54148438 42.54164063 38.6875 41.8125 C37.76710937 41.0184375 36.84671875 40.224375 35.8984375 39.40625 C33.22167217 37.18402972 30.52271717 34.9936958 27.8125 32.8125 C20.52533955 26.92832734 13.79116861 20.44290355 7 14 C7.15597656 15.20398438 7.31195313 16.40796875 7.47265625 17.6484375 C7.66959135 19.2239183 7.86618844 20.79944138 8.0625 22.375 C8.16626953 23.1690625 8.27003906 23.963125 8.37695312 24.78125 C9.11328125 30.7734375 9.11328125 30.7734375 8 33 C5.34765625 33.66796875 5.34765625 33.66796875 2.0625 34.1875 C0.98097656 34.36667969 -0.10054688 34.54585937 -1.21484375 34.73046875 C-4 35 -4 35 -6 34 C-5.01 33.01 -5.01 33.01 -4 32 C-3.66666667 29.5 -3.66666667 29.5 -4 27 C-4.99 26.01 -4.99 26.01 -6 25 C-3.69 25 -1.38 25 1 25 C0.505 24.01 0.505 24.01 0 23 C-0.53946879 19.51728239 -0.84239173 16.00667064 -1.1875 12.5 C-1.29513672 11.52417969 -1.40277344 10.54835938 -1.51367188 9.54296875 C-1.60583984 8.61097656 -1.69800781 7.67898437 -1.79296875 6.71875 C-1.8808667 5.86216797 -1.96876465 5.00558594 -2.05932617 4.12304688 C-2 2 -2 2 0 0 Z " fill="#000000" transform="translate(142,105)"/>
<path d="M0 0 C1.8170343 -0.01418472 1.8170343 -0.01418472 3.67077637 -0.02865601 C4.98018188 -0.02258331 6.2895874 -0.01651062 7.63867188 -0.01025391 C8.99483395 -0.01227492 10.35099497 -0.01518658 11.70715332 -0.01895142 C14.54852654 -0.02337356 17.38961672 -0.01694764 20.23095703 -0.00292969 C23.87294291 0.01416263 27.51426557 0.00432079 31.15622711 -0.01364708 C33.95637 -0.02448816 36.75635567 -0.0210372 39.5565033 -0.0132637 C41.55236237 -0.01028939 43.54822756 -0.0193998 45.54406738 -0.02865601 C46.75542358 -0.01919952 47.96677979 -0.00974304 49.21484375 0 C50.28279175 0.00238678 51.35073975 0.00477356 52.4510498 0.00723267 C55.10742188 0.38818359 55.10742188 0.38818359 56.94152832 1.77157593 C58.10742188 3.38818359 58.10742188 3.38818359 58.65429688 5.64208984 C57.81472267 9.85795177 55.22495396 12.22932906 52.35742188 15.32568359 C51.15637052 16.6650518 49.95586163 18.00490662 48.75585938 19.34521484 C48.14452148 20.0202002 47.53318359 20.69518555 46.90332031 21.390625 C44.20992742 24.38645706 41.59498708 27.44691614 38.98242188 30.51318359 C38.48967773 31.08866943 37.99693359 31.66415527 37.48925781 32.25708008 C33.73068544 36.64723612 29.99599876 41.05735835 26.26904297 45.47436523 C23.81093711 48.38485865 21.34141349 51.28489215 18.85742188 54.17333984 C18.31537109 54.80369141 17.77332031 55.43404297 17.21484375 56.08349609 C16.17040857 57.29671606 15.12489545 58.50900918 14.078125 59.72021484 C11.64878013 62.54181486 9.32205783 65.3962491 7.10742188 68.38818359 C7.71463577 68.39627045 8.32184967 68.4043573 8.94746399 68.41268921 C15.25775378 68.49863383 21.56772577 68.59813286 27.87768555 68.70556641 C30.23375112 68.74388962 32.58987587 68.77873654 34.94604492 68.81005859 C38.32947975 68.85563633 41.71250595 68.91364312 45.09570312 68.97412109 C46.15203445 68.9856723 47.20836578 68.99722351 48.29670715 69.00912476 C49.27749741 69.02899445 50.25828766 69.04886414 51.26879883 69.06933594 C52.13261673 69.08265961 52.99643463 69.09598328 53.88642883 69.10971069 C56.10742188 69.38818359 56.10742188 69.38818359 59.10742188 71.38818359 C59.53322273 74.15588914 59.5904085 75.69384499 57.96948242 78.02407837 C55.28143778 79.99328165 53.25025507 79.76931951 49.93945312 79.77636719 C48.66803467 79.78582367 47.39661621 79.79528015 46.08666992 79.80502319 C44.69775074 79.7996535 43.3088344 79.79350055 41.91992188 79.78662109 C40.49649913 79.78864198 39.0730774 79.79155355 37.6496582 79.7953186 C34.66705463 79.79974131 31.68472066 79.79331295 28.70214844 79.77929688 C24.87857097 79.76220462 21.05562521 79.77204615 17.23207092 79.79001427 C14.292961 79.80085378 11.3540009 79.79740508 8.41488647 79.78963089 C7.00507533 79.78762933 5.59525059 79.79008665 4.18545532 79.79706955 C2.21543639 79.80468583 0.24536979 79.79101938 -1.72460938 79.77636719 C-2.84585205 79.77398041 -3.96709473 79.77159363 -5.12231445 79.76913452 C-7.89257812 79.38818359 -7.89257812 79.38818359 -9.78198242 78.04483032 C-10.89257812 76.38818359 -10.89257812 76.38818359 -10.83007812 73.49365234 C-9.7564655 69.93731052 -8.47622429 68.34264122 -5.89257812 65.70068359 C-2.66612912 62.2916054 0.41690635 58.8599918 3.35742188 55.20068359 C6.96212623 50.74965735 10.66120452 46.39627107 14.41992188 42.07568359 C14.9695459 41.44364014 15.51916992 40.81159668 16.08544922 40.16040039 C17.20312701 38.87567394 18.32096599 37.59108769 19.43896484 36.30664062 C22.12755317 33.2151968 24.80836619 30.11720388 27.48242188 27.01318359 C27.94559814 26.47910889 28.40877441 25.94503418 28.88598633 25.39477539 C31.61343091 22.22401777 34.22358495 18.98104032 36.78564453 15.67480469 C37.72157944 14.46804581 37.72157944 14.46804581 38.67642212 13.23690796 C39.14865204 12.62682892 39.62088196 12.01674988 40.10742188 11.38818359 C39.52304352 11.38009674 38.93866516 11.37200989 38.33657837 11.36367798 C32.26973213 11.27780795 26.20321928 11.17831285 20.13671875 11.07080078 C17.87082506 11.03245089 15.60486923 10.99760877 13.33886719 10.96630859 C10.08701321 10.92078833 6.83558927 10.86277284 3.58398438 10.80224609 C2.56623932 10.79069489 1.54849426 10.77914368 0.49990845 10.76724243 C-0.91132797 10.7374379 -0.91132797 10.7374379 -2.35107422 10.70703125 C-3.18158295 10.69370758 -4.01209167 10.68038391 -4.86776733 10.66665649 C-6.89257812 10.38818359 -6.89257812 10.38818359 -8.89257812 8.38818359 C-9.24552814 5.63517346 -9.36439412 4.05862407 -7.74133301 1.75228882 C-5.12441015 -0.17860974 -3.23358207 0.0072268 0 0 Z " fill="#00B2EA" transform="translate(79.892578125,60.61181640625)"/>
</svg>
