<?xml version="1.0" encoding="UTF-8"?>
<svg version="1.1" xmlns="http://www.w3.org/2000/svg" width="512" height="512">
<path d="M0 0 C1.88098875 -0.00302299 3.76197627 -0.00691321 5.64296162 -0.01159257 C10.79633969 -0.0218622 15.94964812 -0.01969337 21.10303187 -0.01541197 C26.66688074 -0.01294289 32.23071292 -0.02196117 37.79455566 -0.02944946 C48.68861094 -0.04219324 59.58264156 -0.04399056 70.47670303 -0.0416492 C79.33220021 -0.03986558 88.18768991 -0.04161662 97.04318619 -0.04587364 C98.30393134 -0.04646883 99.56467649 -0.04706402 100.86362604 -0.04767724 C103.42489393 -0.04888901 105.98616181 -0.05010314 108.5474297 -0.05131962 C125.74205365 -0.05910557 142.93667479 -0.06302685 160.13129997 -0.05900288 C160.80332147 -0.0588465 161.47534297 -0.05869012 162.16772875 -0.05852901 C165.57359141 -0.05772326 168.97945407 -0.05687749 172.38531671 -0.05601571 C173.3998908 -0.05575908 173.3998908 -0.05575908 174.43496132 -0.05549726 C175.80277026 -0.0551506 177.17057919 -0.05480207 178.53838813 -0.05445167 C199.82111018 -0.04909458 221.1037908 -0.05702593 242.38650513 -0.07548523 C266.31277287 -0.09621321 290.23901513 -0.10689537 314.16529477 -0.10290974 C326.8282887 -0.10099746 339.49124488 -0.10348803 352.15423203 -0.11762428 C362.93391512 -0.12953647 373.71353722 -0.13094472 384.49322115 -0.11883412 C389.99139038 -0.11294445 395.48944805 -0.11184858 400.98760986 -0.12383652 C406.02476141 -0.13469154 411.06170819 -0.13159634 416.09885015 -0.11757483 C417.91705678 -0.11492689 419.73527945 -0.11729748 421.55347036 -0.1253107 C446.5854891 -0.22793962 446.5854891 -0.22793962 455.81668091 7.52241516 C461.19873072 12.86842446 465.12422188 18.31991508 465.81968057 26.08585292 C465.82179385 27.56058339 465.82179385 27.56058339 465.82394981 29.06510639 C465.83039871 30.20708935 465.8368476 31.34907231 465.84349191 32.52566081 C465.84039471 33.77049383 465.8372975 35.01532685 465.83410645 36.29788208 C465.83784478 37.64133369 465.84244703 38.98478313 465.84783709 40.32822913 C465.86005988 44.0142356 465.85980748 47.70015126 465.85744834 51.38617337 C465.85703999 55.36379653 465.86808103 59.34139064 465.87756348 63.31900024 C465.8941704 71.10974511 465.89967288 78.90045971 465.90078823 86.6912208 C465.90173884 93.02443404 465.90584974 99.35763731 465.91218948 105.6908474 C465.92980091 123.64984686 465.93902849 141.60882244 465.93752854 159.5678306 C465.93740867 161.01983604 465.93740867 161.01983604 465.93728638 162.50117493 C465.93720462 163.47036154 465.93712285 164.43954815 465.93703862 165.43810406 C465.9362257 181.14534302 465.95536494 196.85248608 465.98356311 212.55969731 C466.01229369 228.69086458 466.02610331 244.82198508 466.02437556 260.95317858 C466.02371173 270.00837579 466.02920109 279.06347247 466.05073166 288.11864662 C466.06894573 295.82834743 466.07328894 303.53790213 466.05971281 311.24761514 C466.05318432 315.17991653 466.05306144 319.11193764 466.07041931 323.04421234 C466.08616066 326.64738878 466.08327607 330.25006295 466.06585105 333.85322722 C466.06133551 335.76700044 466.07643021 337.6807893 466.09233034 339.59450179 C466.03494715 346.76806872 465.04303994 351.97818161 461.56668091 358.26069641 C461.17480591 359.14757141 460.78293091 360.03444641 460.37918091 360.94819641 C454.66698817 368.23616646 446.39672667 370.82373361 437.56668091 372.26069641 C431.35790193 372.78183484 425.11786405 372.66665702 418.89285278 372.64164734 C417.01013671 372.64510834 415.12742267 372.64987587 413.24471283 372.65582907 C408.09581906 372.66830783 402.94709293 372.66218291 397.7981987 372.65287042 C392.23574459 372.64606746 386.6733188 372.65656734 381.11087036 372.66481018 C370.22375978 372.67813638 359.33671131 372.67527471 348.44959831 372.66657226 C339.59986741 372.65979175 330.7501539 372.65888058 321.90042114 372.66214371 C320.63994697 372.66260341 319.3794728 372.66306311 318.08080244 372.66353673 C315.52001762 372.66449593 312.9592328 372.66546857 310.39844799 372.66645451 C287.08088707 372.67476149 263.76336247 372.66615296 240.44580925 372.65042672 C219.17618585 372.63619073 197.90661634 372.63746465 176.63699341 372.65180969 C152.72023024 372.66788629 128.80349678 372.6741812 104.88672638 372.6649729 C102.33546448 372.66401727 99.78420258 372.66307416 97.23294067 372.66214371 C95.97773479 372.66168088 94.72252891 372.66121805 93.42928648 372.6607412 C84.59218337 372.65815305 75.75509941 372.66251856 66.91799927 372.66958237 C56.14567992 372.67800395 45.37342613 372.67570333 34.60111427 372.65974014 C29.10698463 372.65186634 23.61296424 372.6487507 18.11883545 372.65868759 C13.08545965 372.66765334 8.05229396 372.6626706 3.01893711 372.64675494 C1.20213814 372.64341511 -0.61467873 372.64508315 -2.4314661 372.6523823 C-27.45707209 372.74518087 -27.45707209 372.74518087 -36.68331909 364.99897766 C-42.0653689 359.65296836 -45.99086006 354.20147774 -46.68631876 346.4355399 C-46.68772761 345.45238626 -46.68913646 344.46923261 -46.690588 343.45628643 C-46.69703689 342.31430347 -46.70348578 341.17232051 -46.7101301 339.99573201 C-46.70703289 338.75089899 -46.70393569 337.50606597 -46.70074463 336.22351074 C-46.70448296 334.88005913 -46.70908522 333.53660969 -46.71447527 332.19316369 C-46.72669806 328.50715722 -46.72644567 324.82124156 -46.72408652 321.13521945 C-46.72367817 317.1575963 -46.73471921 313.18000218 -46.74420166 309.20239258 C-46.76080858 301.41164771 -46.76631106 293.62093311 -46.76742642 285.83017202 C-46.76837702 279.49695878 -46.77248793 273.16375551 -46.77882767 266.83054543 C-46.7964391 248.87154596 -46.80566667 230.91257039 -46.80416672 212.95356222 C-46.80408681 211.98555859 -46.80400689 211.01755497 -46.80392456 210.0202179 C-46.8038428 209.05103128 -46.80376104 208.08184467 -46.8036768 207.08328877 C-46.80286389 191.37604981 -46.82200313 175.66890674 -46.85020129 159.96169551 C-46.87893188 143.83052825 -46.8927415 127.69940774 -46.89101374 111.56821424 C-46.89034991 102.51301703 -46.89583927 93.45792035 -46.91736984 84.4027462 C-46.93558391 76.69304539 -46.93992712 68.9834907 -46.926351 61.27377769 C-46.91982251 57.34147629 -46.91969963 53.40945518 -46.9370575 49.47718048 C-46.95279885 45.87400404 -46.94991426 42.27132987 -46.93248923 38.6681656 C-46.92797369 36.75439238 -46.94306839 34.84060352 -46.95896852 32.92689103 C-46.87673481 22.64671833 -44.33056726 15.50011024 -37.27706909 7.98335266 C-27.15834396 -1.47079518 -12.9310066 -0.02944934 0 0 Z M-1.43331909 24.26069641 C5.6144634 31.3084789 12.99031436 37.66138575 20.85403442 43.77534485 C25.61439352 47.48589331 30.29053774 51.28934468 34.94168091 55.13569641 C45.45886328 63.82886999 55.99121304 72.49750792 66.75418091 80.88569641 C71.84012837 84.84954374 76.78301119 88.95058994 81.68167114 93.14277649 C86.04621293 96.86115817 90.52906787 100.40574897 95.05496216 103.92475891 C100.53601277 108.20118301 105.88780941 112.62663151 111.24050903 117.06196594 C115.71427609 120.76002316 120.23457812 124.38548278 124.81668091 127.94819641 C129.88401658 131.88945749 134.80499325 135.9693307 139.68191528 140.14302063 C144.04641705 143.86127078 148.5291583 147.40581928 153.05496216 150.92475891 C158.53601277 155.20118301 163.88780941 159.62663151 169.24050903 164.06196594 C173.71427773 167.76002452 178.23461149 171.38543782 182.81668091 174.94819641 C187.96230041 178.95107791 192.96982249 183.08831071 197.92581177 187.32319641 C202.71836352 191.41347473 207.617325 195.36154244 212.56668091 199.26069641 C215.31855403 197.98465483 217.51185056 196.61596704 219.78152466 194.60835266 C220.37852173 194.08483215 220.9755188 193.56131165 221.59060669 193.02192688 C222.22208618 192.46134583 222.85356567 191.90076477 223.50418091 191.32319641 C224.85388248 190.13896543 226.20415262 188.95538217 227.55496216 187.77241516 C228.22994751 187.17992981 228.90493286 186.58744446 229.60037231 185.977005 C232.43871267 183.49953633 235.31085825 181.06351501 238.19168091 178.63569641 C238.72019653 178.18968079 239.24871216 177.74366516 239.79324341 177.28413391 C240.85466606 176.38880185 241.91635051 175.49378006 242.978302 174.59907532 C245.65577043 172.34302214 248.33041048 170.08363035 251.00418091 167.82319641 C251.80275513 167.14837219 251.80275513 167.14837219 252.61746216 166.45991516 C256.05889096 163.54793695 259.48339132 160.61698374 262.90066528 157.67671204 C267.55850017 153.66904385 272.22971727 149.69228028 277.00418091 145.82319641 C282.10975555 141.6800865 287.06468144 137.37839191 292.01956177 133.05781555 C295.65405941 129.89603804 299.32188934 126.79219435 303.06668091 123.76069641 C308.10096363 119.68247925 312.99178799 115.45452583 317.87698364 111.20039368 C322.4578418 107.21353308 327.07418378 103.27250561 331.7180481 99.35932922 C335.73052275 95.97587693 339.71378478 92.55969457 343.69168091 89.13569641 C347.75288967 85.64245785 351.84187061 82.19620935 356.00418091 78.82319641 C361.10975555 74.6800865 366.06468144 70.37839191 371.01956177 66.05781555 C374.65405941 62.89603804 378.32188934 59.79219435 382.06668091 56.76069641 C387.09364469 52.68840824 391.97885583 48.46819713 396.85501099 44.2179718 C401.64450743 40.04651438 406.47778542 35.931024 411.35525513 31.86274719 C414.25157957 29.43269244 416.88150375 26.94587357 419.56668091 24.26069641 C280.63668091 24.26069641 141.70668091 24.26069641 -1.43331909 24.26069641 Z M430.19168091 46.19819641 C426.31521888 49.80250463 422.3962699 53.27198262 418.25418091 56.57319641 C412.95498841 60.83243194 408.0491158 65.43937342 403.11428833 70.10762024 C398.71635902 74.24642076 394.16386961 78.08793876 389.44168091 81.85444641 C385.85288033 84.85811646 382.4654742 88.04543795 379.06668091 91.26069641 C374.02251195 96.03248024 368.87273234 100.52253634 363.44168091 104.85444641 C359.85288033 107.85811646 356.4654742 111.04543795 353.06668091 114.26069641 C348.02251195 119.03248024 342.87273234 123.52253634 337.44168091 127.85444641 C333.85287931 130.85811731 330.46548638 134.04544938 327.06668091 137.26069641 C322.00936816 142.04460669 316.84874383 146.55523408 311.40261841 150.89741516 C307.22628651 154.37769174 303.28305025 158.0967783 299.33596802 161.83320618 C296.51978595 164.4911168 293.74360029 167.02826658 290.56668091 169.26069641 C291.90667589 172.26751441 293.36513382 174.2583225 295.75418091 176.51069641 C298.27056548 178.89153802 300.57506916 181.38892984 302.84402466 184.00288391 C306.44173218 188.14677017 310.17074037 192.14974825 313.94168091 196.13569641 C318.80287269 201.29666069 323.61414549 206.49115862 328.33621216 211.78022766 C331.51885871 215.31959817 334.75311018 218.81039498 337.98538208 222.30439758 C341.35552058 225.94768962 344.71574611 229.59973656 348.06668091 233.26069641 C351.88997017 237.43669272 355.72433926 241.60222445 359.56668091 245.76069641 C365.70370708 252.40329899 371.81436719 259.069813 377.9211731 265.7401886 C383.12532783 271.42391987 388.33715723 277.10028826 393.56668091 282.76069641 C399.70366664 289.40333658 405.81436698 296.06981278 411.9211731 302.7401886 C414.18559189 305.21327954 416.45112792 307.68532545 418.71902466 310.15522766 C420.75852778 312.37668856 422.79072319 314.60464488 424.82058716 316.83491516 C425.90252637 318.01859304 426.98455557 319.20218868 428.06668091 320.38569641 C428.57126831 320.94249084 429.07585571 321.49928528 429.59573364 322.07295227 C431.81766668 324.49684497 433.81481435 326.42611871 436.56668091 328.26069641 C436.56668091 233.55069641 436.56668091 138.84069641 436.56668091 41.26069641 C434.28593976 41.26069641 431.85297681 44.63747626 430.19168091 46.19819641 Z M-17.43331909 42.26069641 C-17.43331909 136.31069641 -17.43331909 230.36069641 -17.43331909 327.26069641 C-12.04226349 322.69192751 -12.04226349 322.69192751 -6.93331909 317.89350891 C-6.35581909 317.31729797 -5.77831909 316.74108704 -5.18331909 316.14741516 C-4.31706909 315.27536438 -4.31706909 315.27536438 -3.43331909 314.38569641 C-2.85581909 313.8120636 -2.27831909 313.23843079 -1.68331909 312.64741516 C1.30936244 309.64805354 4.17904425 306.59088127 6.94168091 303.37788391 C11.63320675 297.95199814 16.78337602 292.99730155 21.89480591 287.97163391 C25.39761018 284.50457254 28.82431812 281.03265039 32.03543091 277.29194641 C36.8796412 271.6552501 42.24599163 266.53682504 47.53933716 261.32710266 C51.80140471 257.10608231 55.87326649 252.82101251 59.77957153 248.27046204 C63.91724254 243.61727792 68.45676323 239.33521279 72.89480591 234.97163391 C76.39761018 231.50457254 79.82431812 228.03265039 83.03543091 224.29194641 C87.8796412 218.6552501 93.24599163 213.53682504 98.53933716 208.32710266 C102.16540058 204.7359612 105.72673121 201.1500321 109.04714966 197.27241516 C113.98705436 191.51374172 119.52468372 186.3290408 124.97879028 181.06343079 C125.7979895 180.25841125 126.61718872 179.45339172 127.46121216 178.62397766 C128.2021814 177.90508362 128.94315063 177.18618958 129.70657349 176.44551086 C131.67032817 174.13895611 132.61299231 172.11800382 133.56668091 169.26069641 C125.13395614 162.01639162 116.67905742 154.79989471 108.18435669 147.62837219 C106.53759112 146.23610224 104.89358023 144.84064169 103.25027466 143.44429016 C98.26641843 139.21216008 93.27108819 135.00332243 88.19168091 130.88569641 C83.06855024 126.71848517 78.09073162 122.39757184 73.11404419 118.05805969 C69.47948888 114.89617198 65.81156223 111.792267 62.06668091 108.76069641 C57.64999147 105.18528115 53.34887705 101.49470293 49.06668091 97.76069641 C43.90816779 93.26321664 38.68510997 88.87074189 33.36746216 84.56147766 C28.88670471 80.88063228 24.50508904 77.08556448 20.10964966 73.30366516 C15.69605279 69.50732085 11.2502072 65.74961515 6.80105591 61.99507141 C4.57601566 60.11693147 2.35821879 58.23064877 0.14480591 56.33882141 C-0.42294556 55.85485901 -0.99069702 55.37089661 -1.57565308 54.87226868 C-3.14010703 53.53833213 -4.70279332 52.20232324 -6.26535034 50.86616516 C-9.8950641 47.88093819 -13.67362531 45.08046675 -17.43331909 42.26069641 Z M140.16043091 207.64350891 C137.26079296 210.5472405 134.36788834 213.45739088 131.48562622 216.37837219 C127.62306728 220.27731856 123.78764767 224.14702579 119.61355591 227.71382141 C114.12718729 232.40966305 109.13469734 237.62381661 104.06668091 242.76069641 C93.02878783 253.94857057 93.02878783 253.94857057 88.59793091 257.72944641 C82.93569278 262.56703037 77.79488983 267.96471441 72.56668091 273.26069641 C66.7424674 279.16040899 60.95612377 285.01974362 54.64480591 290.40522766 C49.91102863 294.63181452 45.52242533 299.24440807 41.06668091 303.76069641 C30.02886224 314.94849515 30.02886224 314.94849515 25.62136841 318.70991516 C19.82872294 323.65910147 14.55397205 329.16827079 9.19168091 334.57319641 C8.08905227 335.68085321 6.98618928 336.78827677 5.88308716 337.89546204 C3.87724657 339.90941147 1.87267899 341.92460701 -0.13009644 343.94160461 C-1.5622092 345.3835846 -2.99626425 346.82364157 -4.43331909 348.26069641 C136.14668091 348.26069641 276.72668091 348.26069641 421.56668091 348.26069641 C416.88787897 342.74665004 416.88787897 342.74665004 411.94558716 337.57710266 C411.00682739 336.64994446 411.00682739 336.64994446 410.04910278 335.70405579 C408.77310085 334.45401523 407.49705942 333.20401498 406.22097778 331.95405579 C405.59384888 331.33466125 404.96671997 330.71526672 404.32058716 330.07710266 C403.76701538 329.53513245 403.2134436 328.99316223 402.64309692 328.43476868 C400.81699 326.52277783 399.09439509 324.56650057 397.36976624 322.56378174 C393.93645465 318.63253837 390.34634486 314.91078154 386.64089966 311.23725891 C385.98787872 310.58569824 385.33485779 309.93413757 384.66204834 309.26283264 C383.2582218 307.86278155 381.85324238 306.46388566 380.44720459 305.0660553 C378.21597204 302.8477082 375.98798499 300.62614579 373.76077271 298.40376282 C369.03222137 293.68658113 364.2997489 288.97334565 359.56668091 284.26069641 C354.07748033 278.7951766 348.58994325 273.32800789 343.10662842 267.85658264 C340.92243736 265.67882544 338.73523297 263.5041268 336.54788208 261.32954407 C335.19592595 259.98122389 333.84411195 258.63276118 332.49246216 257.28413391 C331.89277618 256.68961426 331.29309021 256.0950946 330.67523193 255.4825592 C327.02498811 251.83276552 323.59699756 248.0451535 320.22059441 244.14143372 C317.93748031 241.54520492 315.53859483 239.11297962 313.09036255 236.67085266 C312.34268112 235.92295219 312.34268112 235.92295219 311.57989502 235.15994263 C309.96457305 233.54530617 308.34576073 231.93422093 306.72683716 230.32319641 C305.59318948 229.19141777 304.45976532 228.05941521 303.32655334 226.92720032 C300.3680424 223.9724763 297.40653909 221.02076988 294.44436646 218.06971741 C291.41233366 215.0479817 288.38319024 212.02335247 285.35379028 208.99897766 C279.42755124 203.08340836 273.49814249 197.17102912 267.56668091 191.26069641 C263.48661407 193.16384626 260.36057356 195.86904066 257.00418091 198.82319641 C255.74462088 199.9179328 254.48419557 201.01167439 253.22293091 202.10444641 C252.60160278 202.64327454 251.98027466 203.18210266 251.34011841 203.73725891 C248.06816893 206.54796441 244.70963206 209.2511245 241.35964966 211.96772766 C238.72254527 214.13273504 236.12167125 216.3336502 233.52786255 218.55000305 C218.7944985 231.12664981 218.7944985 231.12664981 213.56668091 231.26069641 C208.73298021 230.0047489 205.52042105 227.98065961 201.62918091 224.88569641 C201.07415894 224.44797913 200.51913696 224.01026184 199.94729614 223.5592804 C198.14658428 222.13518801 196.35615736 220.6988734 194.56668091 219.26069641 C193.33779514 218.27987562 192.10862613 217.2994096 190.87918091 216.31929016 C188.36780322 214.31458243 185.86077163 212.30458023 183.35574341 210.29194641 C179.03469074 206.82617187 174.6769388 203.40773969 170.30911255 200.00117493 C167.58368613 197.86999899 164.90995819 195.701751 162.28933716 193.44429016 C155.45221119 187.96085628 145.11474231 202.69091537 140.16043091 207.64350891 Z " fill="#BFCAF0" transform="translate(46.433319091796875,69.73930358886719)"/>
</svg>
