<svg role="img" viewBox="0 0 500 500" xmlns="http://www.w3.org/2000/svg" id="Tryhackme--Streamline-Simple-Icons" height="500" width="500"><title>TryHackMe</title><path d="M223.02083333333331 0C157.08333333333331 0 102.125 47.604166666666664 90.60416666666667 110.22916666666667a94.27083333333333 94.27083333333333 0 0 0 -85.5625 93.75 94.27083333333333 94.27083333333333 0 0 0 94.16666666666666 94.16666666666666h140.85416666666666a13.020833333333332 13.020833333333332 0 1 0 0 -26.041666666666664H99.1875a68.1875 68.1875 0 0 1 -68.125 -68.125A68.1875 68.1875 0 0 1 137.29166666666666 147.5a13.020833333333332 13.020833333333332 0 0 0 14.583333333333332 -21.562499999999996 93.5 93.5 0 0 0 -35 -14.374999999999998 108.81249999999999 108.81249999999999 0 0 1 106.16666666666666 -85.5 108.77083333333333 108.77083333333333 0 0 1 107.79166666666667 95.20833333333333 93.52083333333333 93.52083333333333 0 0 0 -10.166666666666666 6.354166666666666 13.020833333333332 13.020833333333332 0 1 0 15.229166666666666 21.104166666666664 67.60416666666667 67.60416666666667 0 0 1 39.83333333333333 -12.833333333333332 68.29166666666666 68.29166666666666 0 0 1 66.72916666666666 54.37499999999999 13.020833333333332 13.020833333333332 0 0 0 25.520833333333332 -5.229166666666666 94.4375 94.4375 0 0 0 -92.25 -75.20833333333333 94.58333333333333 94.58333333333333 0 0 0 -19.958333333333332 2.1875C344.9166666666667 48.49999999999999 289.5833333333333 0 223.02083333333331 0zm108.16666666666666 221.66666666666666a19.270833333333332 19.270833333333332 0 0 0 -9.625 2.25 19.020833333333332 19.020833333333332 0 0 0 -6.520833333333333 6.041666666666666 26.458333333333332 26.458333333333332 0 0 0 -3.645833333333333 8.895833333333332 49.791666666666664 49.791666666666664 0 0 0 -1.125 10.708333333333332c0 3.770833333333333 0.37499999999999994 7.354166666666666 1.125 10.770833333333332 0.7499999999999999 3.4166666666666665 1.9791666666666665 6.395833333333333 3.645833333333333 8.958333333333332a18.729166666666664 18.729166666666664 0 0 0 6.520833333333333 6.187499999999999c2.645833333333333 1.5208333333333333 5.854166666666667 2.2916666666666665 9.625 2.2916666666666665 3.7499999999999996 0 6.958333333333333 -0.7708333333333333 9.583333333333334 -2.2916666666666665a18.6875 18.6875 0 0 0 6.4375 -6.166666666666666c1.6666666666666665 -2.583333333333333 2.8541666666666665 -5.5625 3.604166666666666 -8.979166666666666 0.7499999999999999 -3.4166666666666665 1.125 -7 1.125 -10.770833333333332 0 -3.7499999999999996 -0.37499999999999994 -7.333333333333332 -1.125 -10.708333333333332a26.479166666666664 26.479166666666664 0 0 0 -3.604166666666666 -8.875 18.770833333333332 18.770833333333332 0 0 0 -6.4375 -6.062499999999999 19.104166666666668 19.104166666666668 0 0 0 -9.583333333333334 -2.25zm135.125 0a19.270833333333332 19.270833333333332 0 0 0 -9.625 2.25 19.020833333333332 19.020833333333332 0 0 0 -6.520833333333333 6.041666666666666 26.458333333333332 26.458333333333332 0 0 0 -3.645833333333333 8.895833333333332 49.791666666666664 49.791666666666664 0 0 0 -1.1041666666666665 10.708333333333332c0 3.770833333333333 0.3541666666666667 7.354166666666666 1.1041666666666665 10.770833333333332 0.7499999999999999 3.4166666666666665 1.9791666666666665 6.395833333333333 3.645833333333333 8.958333333333332a18.729166666666664 18.729166666666664 0 0 0 6.520833333333333 6.187499999999999c2.645833333333333 1.5208333333333333 5.854166666666667 2.2916666666666665 9.625 2.2916666666666665 3.7499999999999996 0 6.958333333333333 -0.7708333333333333 9.583333333333334 -2.2916666666666665a18.6875 18.6875 0 0 0 6.458333333333333 -6.166666666666666c1.625 -2.583333333333333 2.8333333333333335 -5.5625 3.583333333333333 -8.979166666666666 0.7499999999999999 -3.4166666666666665 1.125 -7 1.125 -10.770833333333332 0 -3.7499999999999996 -0.37499999999999994 -7.333333333333332 -1.125 -10.708333333333332a26.479166666666664 26.479166666666664 0 0 0 -3.604166666666666 -8.875 18.770833333333332 18.770833333333332 0 0 0 -6.416666666666666 -6.062499999999999 19.083333333333332 19.083333333333332 0 0 0 -9.604166666666666 -2.25zm-177.85416666666669 1.4166666666666667 -17.5 12.875 6.520833333333333 8.958333333333332 9.916666666666666 -7.666666666666666v39.104166666666664h12.562499999999998v-53.27083333333333zm135.125 0 -17.520833333333332 12.875 6.541666666666666 8.958333333333332 9.937499999999998 -7.666666666666666v39.104166666666664h12.562499999999998v-53.27083333333333zm-92.39583333333331 9.270833333333332c1.6666666666666665 0 2.979166666666666 0.5833333333333333 4.020833333333333 1.75 1.0416666666666667 1.1875 1.8124999999999998 2.645833333333333 2.375 4.375 0.5416666666666666 1.7291666666666667 0.9166666666666665 3.604166666666666 1.125 5.604166666666667a52.93749999999999 52.93749999999999 0 0 1 0 11.104166666666666c-0.20833333333333331 2.0208333333333335 -0.5833333333333333 3.895833333333333 -1.125 5.625a12.166666666666666 12.166666666666666 0 0 1 -2.375 4.375 5.0625 5.0625 0 0 1 -4.020833333333333 1.7708333333333333 5.166666666666666 5.166666666666666 0 0 1 -4.0625 -1.7916666666666665 12.166666666666666 12.166666666666666 0 0 1 -2.458333333333333 -4.354166666666666 25.9375 25.9375 0 0 1 -1.1666666666666665 -5.625 55.104166666666664 55.104166666666664 0 0 1 0 -11.104166666666666c0.20833333333333331 -2 0.6041666666666666 -3.8749999999999996 1.1666666666666665 -5.625a12.145833333333332 12.145833333333332 0 0 1 2.458333333333333 -4.354166666666666 5.208333333333333 5.208333333333333 0 0 1 4.0625 -1.75zm135.125 0c1.6666666666666665 0 2.9999999999999996 0.5833333333333333 4.020833333333333 1.75 1.0416666666666667 1.1875 1.8124999999999998 2.645833333333333 2.375 4.375 0.5625 1.7291666666666667 0.9166666666666665 3.604166666666666 1.125 5.604166666666667a52.93749999999999 52.93749999999999 0 0 1 0 11.104166666666666c-0.20833333333333331 2.0208333333333335 -0.5625 3.895833333333333 -1.125 5.625a12.166666666666666 12.166666666666666 0 0 1 -2.375 4.375 5.0625 5.0625 0 0 1 -4.020833333333333 1.7708333333333333 5.1875 5.1875 0 0 1 -4.0625 -1.7916666666666665 12.104166666666664 12.104166666666664 0 0 1 -2.4375 -4.354166666666666 25.9375 25.9375 0 0 1 -1.1666666666666665 -5.625 55.041666666666664 55.041666666666664 0 0 1 0 -11.104166666666666c0.20833333333333331 -2 0.5833333333333333 -3.8749999999999996 1.1666666666666665 -5.625a12.083333333333332 12.083333333333332 0 0 1 2.4375 -4.354166666666666 5.208333333333333 5.208333333333333 0 0 1 4.0625 -1.75zm-45.64583333333333 73.12499999999999a19.375 19.375 0 0 0 -9.645833333333334 2.270833333333333 18.916666666666668 18.916666666666668 0 0 0 -6.5 6.062499999999999c-1.6666666666666665 2.5416666666666665 -2.8958333333333335 5.479166666666667 -3.645833333333333 8.875a49.64583333333333 49.64583333333333 0 0 0 -1.125 10.708333333333332c0 3.7499999999999996 0.37499999999999994 7.354166666666666 1.125 10.75 0.7499999999999999 3.4166666666666665 1.9583333333333333 6.416666666666666 3.645833333333333 9a18.958333333333332 18.958333333333332 0 0 0 6.5 6.166666666666666 19.166666666666668 19.166666666666668 0 0 0 9.645833333333334 2.2916666666666665c3.7499999999999996 0 6.9375 -0.7708333333333333 9.583333333333334 -2.2916666666666665a18.583333333333332 18.583333333333332 0 0 0 6.416666666666666 -6.166666666666666 27.5 27.5 0 0 0 3.6249999999999996 -9c0.7499999999999999 -3.3958333333333335 1.125 -6.979166666666667 1.125 -10.75 0 -3.7499999999999996 -0.37499999999999994 -7.333333333333332 -1.125 -10.708333333333332a26.541666666666664 26.541666666666664 0 0 0 -3.6249999999999996 -8.875 18.541666666666664 18.541666666666664 0 0 0 -6.4375 -6.062499999999999 19.125 19.125 0 0 0 -9.583333333333334 -2.25zm-133.375 1.4583333333333335 -17.520833333333332 12.854166666666666 6.541666666666666 8.958333333333332 9.916666666666666 -7.687499999999999v39.12499999999999h12.583333333333332v-53.27083333333333zm44.27083333333333 0 -17.520833333333332 12.854166666666666 6.541666666666666 8.958333333333332 9.937499999999998 -7.687499999999999v39.12499999999999h12.562499999999998v-53.27083333333333zm44.083333333333336 0 -17.5 12.854166666666666 6.520833333333333 8.958333333333332 9.937499999999998 -7.687499999999999v39.12499999999999h12.562499999999998v-53.27083333333333zm45 9.229166666666666c1.6666666666666665 0 2.9999999999999996 0.5833333333333333 4.041666666666667 1.7708333333333333a12.604166666666666 12.604166666666666 0 0 1 2.375 4.375c0.5416666666666666 1.7291666666666667 0.9166666666666665 3.583333333333333 1.1041666666666665 5.604166666666667a54.97916666666666 54.97916666666666 0 0 1 0 11.083333333333334 26.666666666666664 26.666666666666664 0 0 1 -1.1041666666666665 5.625 12.187499999999998 12.187499999999998 0 0 1 -2.375 4.375 5.083333333333333 5.083333333333333 0 0 1 -4.020833333333333 1.7708333333333333 5.208333333333333 5.208333333333333 0 0 1 -4.083333333333333 -1.7708333333333333 12.270833333333332 12.270833333333332 0 0 1 -2.4375 -4.375 25.9375 25.9375 0 0 1 -1.1666666666666665 -5.625 54.104166666666664 54.104166666666664 0 0 1 0 -11.083333333333334c0.20833333333333331 -2.0208333333333335 0.5833333333333333 -3.8749999999999996 1.1666666666666665 -5.625a12.270833333333332 12.270833333333332 0 0 1 2.4375 -4.354166666666666 5.1875 5.1875 0 0 1 4.083333333333333 -1.7708333333333333zm-140.1875 64.02083333333333a14.083333333333334 14.083333333333334 0 0 0 -6.979166666666667 1.625 13.770833333333334 13.770833333333334 0 0 0 -4.729166666666667 4.395833333333333 18.958333333333332 18.958333333333332 0 0 0 -2.645833333333333 6.458333333333333c-0.5625 2.458333333333333 -0.8333333333333333 5.041666666666666 -0.8333333333333333 7.770833333333333s0.2708333333333333 5.333333333333333 0.8333333333333333 7.8125a19.375 19.375 0 0 0 2.645833333333333 6.520833333333333 13.541666666666666 13.541666666666666 0 0 0 4.729166666666667 4.479166666666666c1.9166666666666665 1.1041666666666665 4.249999999999999 1.6666666666666665 6.979166666666667 1.6666666666666665a13.645833333333334 13.645833333333334 0 0 0 6.958333333333333 -1.6666666666666665 13.541666666666666 13.541666666666666 0 0 0 4.6875 -4.479166666666666c1.1875 -1.8749999999999998 2.0833333333333335 -4.041666666666667 2.6041666666666665 -6.520833333333333a36.45833333333333 36.45833333333333 0 0 0 0.8333333333333333 -7.8125c0 -2.7083333333333335 -0.29166666666666663 -5.3125 -0.8333333333333333 -7.770833333333333a19.395833333333332 19.395833333333332 0 0 0 -2.6041666666666665 -6.458333333333333 13.708333333333334 13.708333333333334 0 0 0 -4.6875 -4.375 13.895833333333334 13.895833333333334 0 0 0 -6.958333333333333 -1.6666666666666665zm64.29166666666666 0a14.0625 14.0625 0 0 0 -7 1.625 13.770833333333334 13.770833333333334 0 0 0 -4.708333333333333 4.395833333333333 18.895833333333332 18.895833333333332 0 0 0 -2.645833333333333 6.458333333333333 35.20833333333333 35.20833333333333 0 0 0 -0.8333333333333333 7.770833333333333c0 2.7291666666666665 0.2708333333333333 5.333333333333333 0.8333333333333333 7.8125a19.333333333333332 19.333333333333332 0 0 0 2.645833333333333 6.520833333333333c1.2083333333333333 1.8749999999999998 2.7916666666666665 3.375 4.708333333333333 4.479166666666666 1.9374999999999998 1.1041666666666665 4.270833333333333 1.6666666666666665 7 1.6666666666666665a13.645833333333334 13.645833333333334 0 0 0 6.958333333333333 -1.6666666666666665 13.541666666666666 13.541666666666666 0 0 0 4.666666666666666 -4.479166666666666c1.2083333333333333 -1.8749999999999998 2.0833333333333335 -4.041666666666667 2.625 -6.520833333333333a36.5 36.5 0 0 0 0 -15.583333333333332 19.583333333333332 19.583333333333332 0 0 0 -2.625 -6.458333333333333 13.6875 13.6875 0 0 0 -4.666666666666666 -4.375 13.895833333333334 13.895833333333334 0 0 0 -6.958333333333333 -1.6666666666666665zm106.41666666666666 0a14.0625 14.0625 0 0 0 -7 1.625 13.770833333333334 13.770833333333334 0 0 0 -4.708333333333333 4.395833333333333 18.958333333333332 18.958333333333332 0 0 0 -2.645833333333333 6.458333333333333c-0.5625 2.458333333333333 -0.8333333333333333 5.041666666666666 -0.8333333333333333 7.770833333333333s0.2708333333333333 5.333333333333333 0.8333333333333333 7.8125a19.395833333333332 19.395833333333332 0 0 0 2.645833333333333 6.520833333333333c1.2083333333333333 1.8749999999999998 2.7916666666666665 3.375 4.708333333333333 4.479166666666666 1.9374999999999998 1.1041666666666665 4.270833333333333 1.6666666666666665 7 1.6666666666666665 2.7083333333333335 0 5.0625 -0.5625 6.958333333333333 -1.6666666666666665a13.541666666666666 13.541666666666666 0 0 0 4.666666666666666 -4.479166666666666c1.2083333333333333 -1.8749999999999998 2.0833333333333335 -4.041666666666667 2.625 -6.520833333333333a36.45833333333333 36.45833333333333 0 0 0 0.8333333333333333 -7.8125c0 -2.7083333333333335 -0.29166666666666663 -5.3125 -0.8333333333333333 -7.770833333333333a19.645833333333332 19.645833333333332 0 0 0 -2.625 -6.458333333333333 13.6875 13.6875 0 0 0 -4.666666666666666 -4.375 13.916666666666666 13.916666666666666 0 0 0 -6.958333333333333 -1.6666666666666665zm-138.70833333333334 1.0416666666666667 -12.708333333333332 9.333333333333332 4.729166666666667 6.479166666666666 7.208333333333332 -5.541666666666667v28.375h9.125v-38.666666666666664zm63.916666666666664 0 -12.708333333333332 9.333333333333332 4.729166666666667 6.479166666666666 7.208333333333332 -5.541666666666667v28.375h9.125v-38.666666666666664zm106.41666666666666 0 -12.729166666666666 9.333333333333332 4.75 6.479166666666666 7.208333333333332 -5.541666666666667v28.375h9.125v-38.666666666666664zm-202.33333333333331 6.708333333333333c1.2083333333333333 0 2.1875 0.41666666666666663 2.916666666666667 1.2916666666666665a8.770833333333332 8.770833333333332 0 0 1 1.7291666666666667 3.145833333333333 19.999999999999996 19.999999999999996 0 0 1 0.8333333333333333 4.083333333333333 40.25 40.25 0 0 1 0 8.041666666666666 19.874999999999996 19.874999999999996 0 0 1 -0.8333333333333333 4.104166666666667 8.770833333333332 8.770833333333332 0 0 1 -1.7291666666666667 3.1666666666666665 3.666666666666666 3.666666666666666 0 0 1 -2.916666666666667 1.2708333333333333 3.7499999999999996 3.7499999999999996 0 0 1 -2.9374999999999996 -1.2499999999999998 8.895833333333332 8.895833333333332 0 0 1 -1.7708333333333333 -3.1874999999999996 18.479166666666664 18.479166666666664 0 0 1 -0.8541666666666666 -4.104166666666667 40.83333333333333 40.83333333333333 0 0 1 0 -8.041666666666666 18.604166666666664 18.604166666666664 0 0 1 0.8333333333333333 -4.083333333333333 8.75 8.75 0 0 1 1.7916666666666665 -3.145833333333333 3.770833333333333 3.770833333333333 0 0 1 2.9374999999999996 -1.2916666666666665zm64.29166666666666 0c1.2083333333333333 0 2.1666666666666665 0.41666666666666663 2.916666666666667 1.2916666666666665a8.770833333333332 8.770833333333332 0 0 1 1.7083333333333333 3.145833333333333 19.583333333333332 19.583333333333332 0 0 1 0.8333333333333333 4.083333333333333 39.70833333333333 39.70833333333333 0 0 1 0 8.041666666666666 19.375 19.375 0 0 1 -0.8333333333333333 4.104166666666667 8.770833333333332 8.770833333333332 0 0 1 -1.7083333333333333 3.1666666666666665 3.666666666666666 3.666666666666666 0 0 1 -2.916666666666667 1.2708333333333333 3.7499999999999996 3.7499999999999996 0 0 1 -2.9374999999999996 -1.2499999999999998 8.75 8.75 0 0 1 -1.7916666666666665 -3.1874999999999996 17.625 17.625 0 0 1 -0.8333333333333333 -4.104166666666667 40.9375 40.9375 0 0 1 -0.22916666666666663 -4.0625c0 -1.1875 0.08333333333333333 -2.520833333333333 0.20833333333333331 -3.9791666666666665a17.6875 17.6875 0 0 1 0.8541666666666666 -4.083333333333333 8.75 8.75 0 0 1 1.7916666666666665 -3.145833333333333 3.7916666666666665 3.7916666666666665 0 0 1 2.9374999999999996 -1.2916666666666665zm106.41666666666666 0c1.2083333333333333 0 2.1666666666666665 0.41666666666666663 2.916666666666667 1.2916666666666665a8.770833333333332 8.770833333333332 0 0 1 1.7083333333333333 3.145833333333333 19.166666666666668 19.166666666666668 0 0 1 0.8333333333333333 4.083333333333333 40.895833333333336 40.895833333333336 0 0 1 0 8.041666666666666 19.645833333333332 19.645833333333332 0 0 1 -0.8333333333333333 4.104166666666667 8.770833333333332 8.770833333333332 0 0 1 -1.7083333333333333 3.1666666666666665 3.6874999999999996 3.6874999999999996 0 0 1 -2.916666666666667 1.2708333333333333 3.7499999999999996 3.7499999999999996 0 0 1 -2.958333333333333 -1.2499999999999998 9.104166666666666 9.104166666666666 0 0 1 -1.7708333333333333 -3.1874999999999996 19.791666666666664 19.791666666666664 0 0 1 -0.8333333333333333 -4.104166666666667 40.9375 40.9375 0 0 1 -0.22916666666666663 -4.0625c0 -1.1875 0.08333333333333333 -2.520833333333333 0.20833333333333331 -3.9791666666666665a19.979166666666664 19.979166666666664 0 0 1 0.8333333333333333 -4.083333333333333 9.791666666666666 9.791666666666666 0 0 1 1.7916666666666665 -3.145833333333333 3.770833333333333 3.770833333333333 0 0 1 2.958333333333333 -1.2916666666666665zm-35.08333333333333 37.791666666666664a14.0625 14.0625 0 0 0 -7 1.6458333333333333 13.75 13.75 0 0 0 -4.729166666666667 4.375 18.958333333333332 18.958333333333332 0 0 0 -2.645833333333333 6.458333333333333 36.0625 36.0625 0 0 0 0 15.583333333333332 19.562499999999996 19.562499999999996 0 0 0 2.645833333333333 6.541666666666666c1.2291666666666665 1.8749999999999998 2.7916666666666665 3.375 4.729166666666667 4.479166666666666 1.9374999999999998 1.1041666666666665 4.270833333333333 1.6666666666666665 7 1.6666666666666665a13.75 13.75 0 0 0 6.958333333333333 -1.6666666666666665 13.5 13.5 0 0 0 4.666666666666666 -4.479166666666666c1.2083333333333333 -1.8749999999999998 2.0833333333333335 -4.0625 2.625 -6.541666666666666a36.1875 36.1875 0 0 0 -0.020833333333333332 -15.562499999999998 19.333333333333332 19.333333333333332 0 0 0 -2.6041666666666665 -6.458333333333333 13.541666666666666 13.541666666666666 0 0 0 -4.666666666666666 -4.395833333333333 13.916666666666666 13.916666666666666 0 0 0 -6.958333333333333 -1.6458333333333333zm63.8125 0a14.083333333333334 14.083333333333334 0 0 0 -7 1.6458333333333333 13.833333333333334 13.833333333333334 0 0 0 -4.729166666666667 4.375 18.875 18.875 0 0 0 -2.645833333333333 6.458333333333333 36.25 36.25 0 0 0 0 15.583333333333332 19.5 19.5 0 0 0 2.645833333333333 6.541666666666666 13.75 13.75 0 0 0 4.729166666666667 4.479166666666666c1.9166666666666665 1.1041666666666665 4.249999999999999 1.6666666666666665 7 1.6666666666666665a13.625 13.625 0 0 0 6.958333333333333 -1.6666666666666665 13.5 13.5 0 0 0 4.645833333333333 -4.479166666666666c1.2083333333333333 -1.8749999999999998 2.0833333333333335 -4.0625 2.625 -6.541666666666666a36.25 36.25 0 0 0 0 -15.562499999999998 19.333333333333332 19.333333333333332 0 0 0 -2.625 -6.458333333333333 13.541666666666666 13.541666666666666 0 0 0 -4.645833333333333 -4.395833333333333 13.875 13.875 0 0 0 -6.958333333333333 -1.6458333333333333zm-32.1875 1.0416666666666667 -12.729166666666666 9.333333333333332 4.75 6.5 7.208333333333332 -5.5625v28.395833333333332h9.125v-38.666666666666664zm-31.625 6.729166666666666c1.1875 0 2.1666666666666665 0.41666666666666663 2.916666666666667 1.2708333333333333a8.75 8.75 0 0 1 1.7083333333333333 3.1666666666666665 18.958333333333332 18.958333333333332 0 0 1 0.8333333333333333 4.0625 40.95833333333333 40.95833333333333 0 0 1 0 8.0625 19.812499999999996 19.812499999999996 0 0 1 -0.8333333333333333 4.104166666666667 8.770833333333332 8.770833333333332 0 0 1 -1.7083333333333333 3.1666666666666665 3.6874999999999996 3.6874999999999996 0 0 1 -2.916666666666667 1.2499999999999998 3.7499999999999996 3.7499999999999996 0 0 1 -2.958333333333333 -1.2499999999999998 8.916666666666666 8.916666666666666 0 0 1 -1.7708333333333333 -3.1666666666666665 19.041666666666668 19.041666666666668 0 0 1 -0.8333333333333333 -4.104166666666667 40.83333333333333 40.83333333333333 0 0 1 -0.22916666666666663 -4.0625c0 -1.2083333333333333 0.0625 -2.5416666666666665 0.20833333333333331 -4a19.229166666666668 19.229166666666668 0 0 1 0.8541666666666666 -4.0625c0.41666666666666663 -1.2499999999999998 1 -2.2916666666666665 1.7708333333333333 -3.1666666666666665a3.770833333333333 3.770833333333333 0 0 1 2.958333333333333 -1.2708333333333333zm63.8125 0c1.1875 0 2.1666666666666665 0.41666666666666663 2.916666666666667 1.2708333333333333a8.75 8.75 0 0 1 1.7083333333333333 3.1666666666666665 19.583333333333332 19.583333333333332 0 0 1 0.8333333333333333 4.0625 39.791666666666664 39.791666666666664 0 0 1 0 8.0625 19.375 19.375 0 0 1 -0.8333333333333333 4.104166666666667 8.791666666666666 8.791666666666666 0 0 1 -1.7291666666666667 3.1666666666666665 3.645833333333333 3.645833333333333 0 0 1 -2.916666666666667 1.2499999999999998 3.7499999999999996 3.7499999999999996 0 0 1 -2.9374999999999996 -1.2499999999999998 8.8125 8.8125 0 0 1 -1.7708333333333333 -3.1666666666666665 18.895833333333332 18.895833333333332 0 0 1 -0.8333333333333333 -4.104166666666667 40.625 40.625 0 0 1 0 -8.0625 19.0625 19.0625 0 0 1 0.8333333333333333 -4.0625c0.41666666666666663 -1.2499999999999998 1 -2.2916666666666665 1.7708333333333333 -3.1666666666666665a3.7916666666666665 3.7916666666666665 0 0 1 2.958333333333333 -1.2708333333333333zm-202.35416666666663 3.8541666666666665a9.6875 9.6875 0 0 0 -4.833333333333333 1.1458333333333333 9.5 9.5 0 0 0 -3.270833333333333 3.0416666666666665 13.0625 13.0625 0 0 0 -1.8541666666666665 4.479166666666666 24.333333333333332 24.333333333333332 0 0 0 -0.5625 5.395833333333333c0 1.8749999999999998 0.18749999999999997 3.6874999999999996 0.5625 5.416666666666667a13.5 13.5 0 0 0 1.8541666666666665 4.5c0.8333333333333333 1.3125 1.9374999999999998 2.333333333333333 3.270833333333333 3.1041666666666665a9.5625 9.5625 0 0 0 4.833333333333333 1.1666666666666665c1.8749999999999998 0 3.5 -0.41666666666666663 4.8125 -1.1666666666666665a9.375 9.375 0 0 0 3.25 -3.1041666666666665 13.958333333333334 13.958333333333334 0 0 0 1.8124999999999998 -4.520833333333333 25.374999999999996 25.374999999999996 0 0 0 0 -10.791666666666666 13.479166666666666 13.479166666666666 0 0 0 -1.8124999999999998 -4.479166666666666 9.333333333333332 9.333333333333332 0 0 0 -3.25 -3.0416666666666665 9.541666666666666 9.541666666666666 0 0 0 -4.791666666666667 -1.1458333333333333zm21.916666666666668 0.7291666666666667 -8.8125 6.458333333333333 3.2916666666666665 4.520833333333333 4.999999999999999 -3.8541666666666665v19.666666666666664h6.312499999999999v-26.791666666666664zm-21.916666666666668 4.666666666666666c0.8333333333333333 0 1.5208333333333333 0.29166666666666663 2.0208333333333335 0.875a5.916666666666666 5.916666666666666 0 0 1 1.1875 2.1875 14.374999999999998 14.374999999999998 0 0 1 0.5833333333333333 2.8333333333333335c0.08333333333333333 1.0208333333333333 0.14583333333333331 1.9166666666666665 0.14583333333333331 2.7708333333333335 0 0.8333333333333333 -0.0625 1.7916666666666665 -0.14583333333333331 2.8125a14.25 14.25 0 0 1 -0.5833333333333333 2.8333333333333335 5.937499999999999 5.937499999999999 0 0 1 -1.1875 2.1875 2.5625 2.5625 0 0 1 -2.0208333333333335 0.8958333333333333 2.6041666666666665 2.6041666666666665 0 0 1 -2.0416666666666665 -0.8958333333333333 6.208333333333333 6.208333333333333 0 0 1 -1.2291666666666665 -2.1875 12.749999999999998 12.749999999999998 0 0 1 -0.5833333333333333 -2.8333333333333335 28.95833333333333 28.95833333333333 0 0 1 0 -5.583333333333333 12.916666666666666 12.916666666666666 0 0 1 0.5833333333333333 -2.8333333333333335 6.187499999999999 6.187499999999999 0 0 1 1.2499999999999998 -2.1875 2.6041666666666665 2.6041666666666665 0 0 1 2.0208333333333335 -0.875zm78.64583333333333 29.041666666666664a9.645833333333334 9.645833333333334 0 0 0 -4.833333333333333 1.125 9.416666666666666 9.416666666666666 0 0 0 -3.270833333333333 3.0416666666666665 12.9375 12.9375 0 0 0 -1.833333333333333 4.458333333333333 24.791666666666664 24.791666666666664 0 0 0 0 10.8125 13.354166666666666 13.354166666666666 0 0 0 1.833333333333333 4.520833333333333 9.583333333333334 9.583333333333334 0 0 0 3.270833333333333 3.1249999999999996 9.541666666666666 9.541666666666666 0 0 0 4.833333333333333 1.125 9.458333333333334 9.458333333333334 0 0 0 4.833333333333333 -1.1458333333333333 9.375 9.375 0 0 0 3.2291666666666665 -3.1041666666666665 13.833333333333334 13.833333333333334 0 0 0 1.8124999999999998 -4.520833333333333 24.770833333333332 24.770833333333332 0 0 0 0 -10.8125 13.375 13.375 0 0 0 -1.8124999999999998 -4.458333333333333 9.291666666666666 9.291666666666666 0 0 0 -3.2291666666666665 -3.0416666666666665 9.5625 9.5625 0 0 0 -4.833333333333333 -1.125zm21.916666666666668 0.7083333333333334 -8.8125 6.458333333333333 3.2916666666666665 4.5 4.999999999999999 -3.8541666666666665v19.687499999999996h6.312499999999999V472.49999999999994zm-21.916666666666668 4.645833333333333c0.8333333333333333 0 1.5208333333333333 0.29166666666666663 2.0416666666666665 0.8958333333333333a6.249999999999999 6.249999999999999 0 0 1 1.1875 2.1875 13.395833333333332 13.395833333333332 0 0 1 0.5625 2.8125 27.291666666666668 27.291666666666668 0 0 1 0 5.583333333333333 13.625 13.625 0 0 1 -0.5625 2.8541666666666665 6.395833333333333 6.395833333333333 0 0 1 -1.1875 2.1875 2.583333333333333 2.583333333333333 0 0 1 -2.0416666666666665 0.875 2.6041666666666665 2.6041666666666665 0 0 1 -2.0416666666666665 -0.875 6.104166666666666 6.104166666666666 0 0 1 -1.2291666666666665 -2.1875 12.875 12.875 0 0 1 -0.5833333333333333 -2.8541666666666665 28.416666666666668 28.416666666666668 0 0 1 0 -5.583333333333333 12.749999999999998 12.749999999999998 0 0 1 0.5833333333333333 -2.8125 5.979166666666666 5.979166666666666 0 0 1 1.2499999999999998 -2.1875 2.5625 2.5625 0 0 1 2.0208333333333335 -0.8958333333333333z" fill="#cbd7ff" stroke="#cbd7ff" stroke-width="5"></path></svg>
