<svg xmlns="http://www.w3.org/2000/svg" viewBox="0 0 765 768" width="765" height="768"><path d="M 408.00 765.50 L 358.00 765.50 L 357.00 764.50 L 354.00 764.50 L 353.00 763.50 L 337.00 763.50 L 335.00 761.50 L 328.00 761.50 L 327.00 760.50 L 326.00 760.50 L 325.00 759.50 L 316.00 759.50 L 314.00 757.50 L 305.00 757.50 L 303.00 755.50 L 297.00 755.50 L 295.00 753.50 L 291.00 753.50 L 289.00 751.50 L 286.00 751.50 L 284.00 749.50 L 276.00 749.50 L 274.00 747.50 L 270.00 747.50 L 268.00 745.50 L 265.00 745.50 L 263.00 743.50 L 262.00 743.50 L 261.00 742.50 L 260.00 742.50 L 259.00 741.50 L 255.00 741.50 L 253.00 739.50 L 249.00 739.50 L 247.00 737.50 L 245.00 737.50 L 243.00 735.50 L 241.00 735.50 L 239.00 733.50 L 236.00 733.50 L 234.00 731.50 L 231.00 731.50 L 229.00 729.50 L 227.00 729.50 L 225.00 727.50 L 223.00 727.50 L 221.00 725.50 L 218.00 725.50 L 216.00 723.50 L 214.00 723.50 L 212.00 721.50 L 211.00 721.50 L 210.50 721.00 L 210.50 720.00 L 210.00 719.50 L 209.00 719.50 L 207.00 717.50 L 206.00 717.50 L 204.00 715.50 L 202.00 715.50 L 200.00 713.50 L 152.00 713.50 L 151.00 712.50 L 149.00 712.50 L 148.00 711.50 L 134.00 711.50 L 132.00 709.50 L 123.00 709.50 L 121.00 707.50 L 115.00 707.50 L 113.00 705.50 L 110.00 705.50 L 108.00 703.50 L 106.00 703.50 L 104.00 701.50 L 102.00 701.50 L 100.00 699.50 L 99.00 699.50 L 97.00 697.50 L 95.00 697.50 L 93.00 695.50 L 92.00 695.50 L 91.50 695.00 L 91.50 694.00 L 91.00 693.50 L 90.00 693.50 L 89.50 693.00 L 89.50 692.00 L 89.00 691.50 L 88.00 691.50 L 87.50 691.00 L 87.50 690.00 L 87.00 689.50 L 86.00 689.50 L 85.50 689.00 L 85.50 688.00 L 84.50 687.00 L 84.50 686.00 L 83.50 685.00 L 83.50 684.00 L 81.50 682.00 L 81.50 681.00 L 80.50 680.00 L 80.50 677.00 L 79.50 676.00 L 79.50 675.00 L 78.50 674.00 L 78.50 655.00 L 80.50 653.00 L 80.50 648.00 L 82.50 646.00 L 82.50 643.00 L 83.50 642.00 L 83.50 640.00 L 84.00 639.50 L 85.00 639.50 L 85.50 639.00 L 85.50 636.00 L 86.00 635.50 L 87.00 635.50 L 87.50 635.00 L 87.50 632.00 L 88.00 631.50 L 89.00 631.50 L 89.50 631.00 L 89.50 628.00 L 90.00 627.50 L 91.00 627.50 L 91.50 627.00 L 91.50 620.00 L 91.00 619.50 L 90.00 619.50 L 89.50 619.00 L 89.50 618.00 L 89.00 617.50 L 88.00 617.50 L 87.50 617.00 L 87.50 616.00 L 87.00 615.50 L 86.00 615.50 L 85.50 615.00 L 85.50 614.00 L 85.00 613.50 L 84.00 613.50 L 83.50 613.00 L 83.50 612.00 L 81.50 610.00 L 81.50 609.00 L 78.00 605.50 L 77.00 605.50 L 76.50 605.00 L 76.50 604.00 L 74.50 602.00 L 74.50 600.00 L 74.00 599.50 L 73.00 599.50 L 72.50 599.00 L 72.50 596.00 L 72.00 595.50 L 71.00 595.50 L 70.50 595.00 L 70.50 594.00 L 68.50 592.00 L 68.50 591.00 L 65.50 588.00 L 65.50 587.00 L 63.50 585.00 L 63.50 584.00 L 59.50 580.00 L 59.50 578.00 L 59.00 577.50 L 58.00 577.50 L 57.50 577.00 L 57.50 574.00 L 57.00 573.50 L 56.00 573.50 L 55.50 573.00 L 55.50 570.00 L 55.00 569.50 L 54.00 569.50 L 53.50 569.00 L 53.50 568.00 L 52.50 567.00 L 52.50 566.00 L 50.50 564.00 L 50.50 563.00 L 48.50 561.00 L 48.50 560.00 L 46.50 558.00 L 46.50 555.00 L 46.00 554.50 L 45.00 554.50 L 44.50 554.00 L 44.50 551.00 L 42.50 549.00 L 42.50 548.00 L 40.50 546.00 L 40.50 544.00 L 38.50 542.00 L 38.50 541.00 L 37.50 540.00 L 37.50 538.00 L 35.50 536.00 L 35.50 534.00 L 33.50 532.00 L 33.50 529.00 L 31.50 527.00 L 31.50 524.00 L 29.50 522.00 L 29.50 518.00 L 29.00 517.50 L 28.00 517.50 L 27.50 517.00 L 27.50 513.00 L 25.50 511.00 L 25.50 509.00 L 24.50 508.00 L 24.50 506.00 L 22.50 504.00 L 22.50 500.00 L 20.50 498.00 L 20.50 494.00 L 18.50 492.00 L 18.50 488.00 L 16.50 486.00 L 16.50 481.00 L 14.50 479.00 L 14.50 473.00 L 12.50 471.00 L 12.50 464.00 L 10.50 462.00 L 10.50 460.00 L 9.50 459.00 L 9.50 453.00 L 8.50 452.00 L 8.50 451.00 L 7.50 450.00 L 7.50 440.00 L 5.50 438.00 L 5.50 429.00 L 4.50 428.00 L 4.50 427.00 L 3.50 426.00 L 3.50 403.00 L 2.50 402.00 L 2.50 401.00 L 1.50 400.00 L 1.50 370.00 L 2.50 369.00 L 2.50 368.00 L 3.50 367.00 L 3.50 344.00 L 4.50 343.00 L 4.50 342.00 L 5.50 341.00 L 5.50 327.00 L 6.50 326.00 L 6.50 325.00 L 7.50 324.00 L 7.50 317.00 L 8.50 316.00 L 8.50 315.00 L 9.50 314.00 L 9.50 308.00 L 10.50 307.00 L 10.50 305.00 L 12.50 303.00 L 12.50 295.00 L 14.50 293.00 L 14.50 286.00 L 16.50 284.00 L 16.50 279.00 L 18.50 277.00 L 18.50 273.00 L 20.50 271.00 L 20.50 266.00 L 22.50 264.00 L 22.50 260.00 L 24.50 258.00 L 24.50 255.00 L 25.50 254.00 L 25.50 253.00 L 27.50 251.00 L 27.50 247.00 L 29.50 245.00 L 29.50 242.00 L 31.50 240.00 L 31.50 237.00 L 33.50 235.00 L 33.50 232.00 L 35.50 230.00 L 35.50 228.00 L 37.50 226.00 L 37.50 224.00 L 38.50 223.00 L 38.50 222.00 L 40.50 220.00 L 40.50 218.00 L 42.50 216.00 L 42.50 213.00 L 44.50 211.00 L 44.50 209.00 L 45.00 208.50 L 46.00 208.50 L 46.50 208.00 L 46.50 206.00 L 48.50 204.00 L 48.50 202.00 L 50.50 200.00 L 50.50 199.00 L 52.50 197.00 L 52.50 195.00 L 55.50 192.00 L 55.50 190.00 L 56.00 189.50 L 57.00 189.50 L 57.50 189.00 L 57.50 187.00 L 59.50 185.00 L 59.50 184.00 L 61.50 182.00 L 61.50 181.00 L 63.50 179.00 L 63.50 178.00 L 65.50 176.00 L 65.50 175.00 L 67.50 173.00 L 67.50 172.00 L 68.50 171.00 L 68.50 170.00 L 69.00 169.50 L 70.00 169.50 L 70.50 169.00 L 70.50 168.00 L 72.50 166.00 L 72.50 164.00 L 73.00 163.50 L 74.00 163.50 L 74.50 163.00 L 74.50 162.00 L 76.50 160.00 L 76.50 159.00 L 81.50 154.00 L 81.50 153.00 L 83.50 151.00 L 83.50 150.00 L 84.00 149.50 L 85.00 149.50 L 85.50 149.00 L 85.50 148.00 L 86.00 147.50 L 87.00 147.50 L 87.50 147.00 L 87.50 145.00 L 89.50 143.00 L 89.50 142.00 L 90.00 141.50 L 91.00 141.50 L 93.50 139.00 L 93.50 138.00 L 96.50 135.00 L 96.50 134.00 L 97.00 133.50 L 98.00 133.50 L 98.50 133.00 L 98.50 132.00 L 99.00 131.50 L 100.00 131.50 L 100.50 131.00 L 100.50 130.00 L 101.00 129.50 L 102.00 129.50 L 102.50 129.00 L 102.50 128.00 L 104.50 126.00 L 104.50 125.00 L 110.00 119.50 L 111.00 119.50 L 111.50 119.00 L 111.50 118.00 L 112.00 117.50 L 113.00 117.50 L 113.50 117.00 L 113.50 116.00 L 114.00 115.50 L 115.00 115.50 L 115.50 115.00 L 115.50 114.00 L 116.00 113.50 L 117.00 113.50 L 117.50 113.00 L 117.50 112.00 L 118.00 111.50 L 119.00 111.50 L 125.00 105.50 L 126.00 105.50 L 126.50 105.00 L 126.50 104.00 L 127.00 103.50 L 128.00 103.50 L 128.50 103.00 L 128.50 102.00 L 129.00 101.50 L 130.00 101.50 L 130.50 101.00 L 130.50 100.00 L 131.00 99.50 L 132.00 99.50 L 136.00 95.50 L 137.00 95.50 L 137.50 95.00 L 137.50 94.00 L 138.00 93.50 L 139.00 93.50 L 141.00 91.50 L 142.00 91.50 L 144.00 89.50 L 145.00 89.50 L 145.50 89.00 L 145.50 88.00 L 146.00 87.50 L 147.00 87.50 L 147.50 87.00 L 147.50 86.00 L 148.00 85.50 L 149.00 85.50 L 153.00 81.50 L 154.00 81.50 L 154.50 81.00 L 154.50 80.00 L 155.00 79.50 L 156.00 79.50 L 158.00 77.50 L 160.00 77.50 L 160.50 77.00 L 160.50 76.00 L 161.00 75.50 L 162.00 75.50 L 164.00 73.50 L 166.00 73.50 L 170.00 69.50 L 171.00 69.50 L 173.00 67.50 L 175.00 67.50 L 175.50 67.00 L 175.50 66.00 L 176.00 65.50 L 177.00 65.50 L 179.00 63.50 L 180.00 63.50 L 182.00 61.50 L 183.00 61.50 L 185.00 59.50 L 186.00 59.50 L 188.00 57.50 L 190.00 57.50 L 192.00 55.50 L 194.00 55.50 L 196.00 53.50 L 197.00 53.50 L 197.50 53.00 L 197.50 52.00 L 198.00 51.50 L 201.00 51.50 L 201.50 51.00 L 201.50 50.00 L 202.00 49.50 L 205.00 49.50 L 207.00 47.50 L 208.00 47.50 L 210.00 45.50 L 211.00 45.50 L 213.00 43.50 L 216.00 43.50 L 216.50 43.00 L 216.50 42.00 L 217.00 41.50 L 220.00 41.50 L 222.00 39.50 L 224.00 39.50 L 226.00 37.50 L 229.00 37.50 L 229.50 37.00 L 229.50 36.00 L 230.00 35.50 L 233.00 35.50 L 235.00 33.50 L 238.00 33.50 L 240.00 31.50 L 243.00 31.50 L 245.00 29.50 L 248.00 29.50 L 248.50 29.00 L 248.50 28.00 L 249.00 27.50 L 252.00 27.50 L 254.00 25.50 L 259.00 25.50 L 261.00 23.50 L 264.00 23.50 L 266.00 21.50 L 270.00 21.50 L 272.00 19.50 L 276.00 19.50 L 278.00 17.50 L 283.00 17.50 L 285.00 15.50 L 290.00 15.50 L 292.00 13.50 L 298.00 13.50 L 300.00 11.50 L 307.00 11.50 L 309.00 9.50 L 317.00 9.50 L 319.00 7.50 L 330.00 7.50 L 331.00 6.50 L 332.00 6.50 L 333.00 5.50 L 343.00 5.50 L 345.00 3.50 L 365.00 3.50 L 366.00 2.50 L 367.00 2.50 L 368.00 1.50 L 408.00 1.50 L 409.00 2.50 L 411.00 2.50 L 412.00 3.50 L 433.00 3.50 L 434.00 4.50 L 435.00 4.50 L 436.00 5.50 L 446.00 5.50 L 448.00 7.50 L 457.00 7.50 L 459.00 9.50 L 468.00 9.50 L 470.00 11.50 L 478.00 11.50 L 480.00 13.50 L 485.00 13.50 L 487.00 15.50 L 492.00 15.50 L 494.00 17.50 L 499.00 17.50 L 501.00 19.50 L 505.00 19.50 L 507.00 21.50 L 511.00 21.50 L 513.00 23.50 L 517.00 23.50 L 517.50 24.00 L 517.50 25.00 L 518.00 25.50 L 522.00 25.50 L 524.00 27.50 L 527.00 27.50 L 529.00 29.50 L 533.00 29.50 L 535.00 31.50 L 538.00 31.50 L 538.50 32.00 L 538.50 33.00 L 539.00 33.50 L 542.00 33.50 L 544.00 35.50 L 546.00 35.50 L 548.00 37.50 L 550.00 37.50 L 552.00 39.50 L 554.00 39.50 L 556.00 41.50 L 558.00 41.50 L 560.00 43.50 L 563.00 43.50 L 565.00 45.50 L 566.00 45.50 L 568.00 47.50 L 570.00 47.50 L 574.00 51.50 L 576.00 51.50 L 578.00 53.50 L 580.00 53.50 L 582.00 55.50 L 584.00 55.50 L 586.00 57.50 L 587.00 57.50 L 589.00 59.50 L 590.00 59.50 L 591.00 60.50 L 592.00 60.50 L 593.00 61.50 L 594.00 61.50 L 594.50 62.00 L 594.50 63.00 L 595.00 63.50 L 596.00 63.50 L 596.50 64.00 L 596.50 65.00 L 597.00 65.50 L 598.00 65.50 L 600.00 67.50 L 601.00 67.50 L 603.00 69.50 L 604.00 69.50 L 606.00 71.50 L 608.00 71.50 L 610.00 73.50 L 611.00 73.50 L 611.50 74.00 L 611.50 75.00 L 612.00 75.50 L 613.00 75.50 L 615.00 77.50 L 616.00 77.50 L 618.00 79.50 L 619.00 79.50 L 621.00 81.50 L 622.00 81.50 L 622.50 82.00 L 622.50 83.00 L 623.00 83.50 L 624.00 83.50 L 624.50 84.00 L 624.50 85.00 L 625.00 85.50 L 626.00 85.50 L 630.00 89.50 L 631.00 89.50 L 637.00 95.50 L 638.00 95.50 L 640.00 97.50 L 641.00 97.50 L 641.50 98.00 L 641.50 99.00 L 642.00 99.50 L 643.00 99.50 L 643.50 100.00 L 643.50 101.00 L 644.00 101.50 L 645.00 101.50 L 650.50 107.00 L 650.50 108.00 L 667.50 125.00 L 667.50 126.00 L 678.50 137.00 L 678.50 139.00 L 679.00 139.50 L 680.00 139.50 L 680.50 140.00 L 680.50 141.00 L 683.50 144.00 L 683.50 145.00 L 689.50 151.00 L 689.50 152.00 L 691.50 154.00 L 691.50 155.00 L 693.50 157.00 L 693.50 159.00 L 694.00 159.50 L 695.00 159.50 L 695.50 160.00 L 695.50 161.00 L 697.50 163.00 L 697.50 165.00 L 698.00 165.50 L 699.00 165.50 L 700.50 167.00 L 700.50 168.00 L 701.50 169.00 L 701.50 170.00 L 704.50 173.00 L 704.50 175.00 L 705.00 175.50 L 706.00 175.50 L 706.50 176.00 L 706.50 178.00 L 708.50 180.00 L 708.50 181.00 L 709.00 181.50 L 710.00 181.50 L 710.50 182.00 L 710.50 185.00 L 711.00 185.50 L 712.00 185.50 L 712.50 186.00 L 712.50 187.00 L 713.50 188.00 L 713.50 189.00 L 717.50 193.00 L 717.50 196.00 L 719.50 198.00 L 719.50 200.00 L 721.50 202.00 L 721.50 205.00 L 722.00 205.50 L 723.00 205.50 L 723.50 206.00 L 723.50 209.00 L 724.00 209.50 L 725.00 209.50 L 725.50 210.00 L 725.50 213.00 L 727.50 215.00 L 727.50 217.00 L 728.50 218.00 L 728.50 219.00 L 730.50 221.00 L 730.50 223.00 L 732.50 225.00 L 732.50 228.00 L 734.50 230.00 L 734.50 233.00 L 736.50 235.00 L 736.50 239.00 L 738.50 241.00 L 738.50 244.00 L 740.50 246.00 L 740.50 250.00 L 742.50 252.00 L 742.50 254.00 L 743.50 255.00 L 743.50 258.00 L 745.50 260.00 L 745.50 265.00 L 747.50 267.00 L 747.50 272.00 L 749.50 274.00 L 749.50 280.00 L 751.50 282.00 L 751.50 289.00 L 752.50 290.00 L 752.50 291.00 L 753.50 292.00 L 753.50 301.00 L 754.50 302.00 L 754.50 303.00 L 755.50 304.00 L 755.50 312.00 L 756.50 313.00 L 756.50 314.00 L 757.50 315.00 L 757.50 317.00 L 758.50 318.00 L 758.50 327.00 L 759.50 328.00 L 759.50 329.00 L 760.50 330.00 L 760.50 350.00 L 761.50 351.00 L 761.50 367.00 L 762.50 368.00 L 762.50 377.00 L 761.50 378.00 L 761.50 385.00 L 762.50 386.00 L 762.50 390.00 L 761.50 391.00 L 761.50 396.00 L 760.50 397.00 L 760.50 420.00 L 759.50 421.00 L 759.50 422.00 L 758.50 423.00 L 758.50 433.00 L 757.50 434.00 L 757.50 436.00 L 756.50 437.00 L 756.50 439.00 L 755.50 440.00 L 755.50 452.00 L 753.50 454.00 L 753.50 462.00 L 751.50 464.00 L 751.50 471.00 L 749.50 473.00 L 749.50 479.00 L 749.00 479.50 L 748.00 479.50 L 747.50 480.00 L 747.50 486.00 L 745.50 488.00 L 745.50 494.00 L 743.50 496.00 L 743.50 500.00 L 742.50 501.00 L 742.50 502.00 L 740.50 504.00 L 740.50 507.00 L 738.50 509.00 L 738.50 513.00 L 736.50 515.00 L 736.50 520.00 L 734.50 522.00 L 734.50 524.00 L 732.50 526.00 L 732.50 528.00 L 730.50 530.00 L 730.50 532.00 L 729.50 533.00 L 729.50 534.00 L 728.50 535.00 L 728.50 537.00 L 727.50 538.00 L 727.50 539.00 L 725.50 541.00 L 725.50 543.00 L 723.50 545.00 L 723.50 547.00 L 723.00 547.50 L 722.00 547.50 L 721.50 548.00 L 721.50 551.00 L 719.50 553.00 L 719.50 556.00 L 717.50 558.00 L 717.50 560.00 L 713.50 564.00 L 713.50 565.00 L 712.50 566.00 L 712.50 568.00 L 710.50 570.00 L 710.50 573.00 L 710.00 573.50 L 709.00 573.50 L 708.50 574.00 L 708.50 575.00 L 706.50 577.00 L 706.50 579.00 L 706.00 579.50 L 705.00 579.50 L 704.50 580.00 L 704.50 582.00 L 702.50 584.00 L 702.50 586.00 L 699.00 589.50 L 698.00 589.50 L 697.50 590.00 L 697.50 593.00 L 697.00 593.50 L 696.00 593.50 L 695.50 594.00 L 695.50 596.00 L 693.50 598.00 L 693.50 599.00 L 693.00 599.50 L 692.00 599.50 L 691.50 600.00 L 691.50 601.00 L 689.50 603.00 L 689.50 604.00 L 685.50 608.00 L 685.50 609.00 L 684.50 610.00 L 684.50 611.00 L 684.00 611.50 L 683.00 611.50 L 682.50 612.00 L 682.50 613.00 L 682.00 613.50 L 681.00 613.50 L 680.50 614.00 L 680.50 616.00 L 678.50 618.00 L 678.50 619.00 L 678.00 619.50 L 677.00 619.50 L 676.50 620.00 L 676.50 621.00 L 674.50 623.00 L 674.50 624.00 L 671.00 627.50 L 670.00 627.50 L 669.50 628.00 L 669.50 629.00 L 667.50 631.00 L 667.50 632.00 L 665.50 634.00 L 665.50 635.00 L 665.00 635.50 L 664.00 635.50 L 663.50 636.00 L 663.50 637.00 L 663.00 637.50 L 662.00 637.50 L 657.50 642.00 L 657.50 643.00 L 656.50 644.00 L 656.50 645.00 L 656.00 645.50 L 655.00 645.50 L 654.50 646.00 L 654.50 647.00 L 654.00 647.50 L 653.00 647.50 L 652.50 648.00 L 652.50 649.00 L 652.00 649.50 L 651.00 649.50 L 650.50 650.00 L 650.50 651.00 L 650.00 651.50 L 649.00 651.50 L 648.50 652.00 L 648.50 653.00 L 648.00 653.50 L 647.00 653.50 L 641.00 659.50 L 640.00 659.50 L 639.50 660.00 L 639.50 661.00 L 639.00 661.50 L 638.00 661.50 L 637.50 662.00 L 637.50 663.00 L 637.00 663.50 L 636.00 663.50 L 635.50 664.00 L 635.50 665.00 L 635.00 665.50 L 634.00 665.50 L 626.00 673.50 L 625.00 673.50 L 624.50 674.00 L 624.50 675.00 L 624.00 675.50 L 623.00 675.50 L 622.50 676.00 L 622.50 677.00 L 622.00 677.50 L 621.00 677.50 L 617.00 681.50 L 616.00 681.50 L 614.00 683.50 L 613.00 683.50 L 611.00 685.50 L 610.00 685.50 L 609.50 686.00 L 609.50 687.00 L 609.00 687.50 L 608.00 687.50 L 606.00 689.50 L 605.00 689.50 L 603.00 691.50 L 602.00 691.50 L 598.00 695.50 L 597.00 695.50 L 595.00 697.50 L 593.00 697.50 L 592.50 698.00 L 592.50 699.00 L 592.00 699.50 L 591.00 699.50 L 587.00 703.50 L 585.00 703.50 L 583.00 705.50 L 582.00 705.50 L 581.50 706.00 L 581.50 707.00 L 581.00 707.50 L 578.00 707.50 L 577.50 708.00 L 577.50 709.00 L 577.00 709.50 L 576.00 709.50 L 574.00 711.50 L 572.00 711.50 L 570.00 713.50 L 569.00 713.50 L 568.50 714.00 L 568.50 715.00 L 568.00 715.50 L 566.00 715.50 L 564.00 717.50 L 563.00 717.50 L 562.00 718.50 L 561.00 718.50 L 560.00 719.50 L 559.00 719.50 L 557.00 721.50 L 554.00 721.50 L 553.50 722.00 L 553.50 723.00 L 553.00 723.50 L 552.00 723.50 L 550.00 725.50 L 547.00 725.50 L 545.00 727.50 L 543.00 727.50 L 541.00 729.50 L 539.00 729.50 L 537.00 731.50 L 535.00 731.50 L 533.00 733.50 L 530.00 733.50 L 528.00 735.50 L 526.00 735.50 L 524.00 737.50 L 520.00 737.50 L 519.50 738.00 L 519.50 739.00 L 519.00 739.50 L 515.00 739.50 L 514.50 740.00 L 514.50 741.00 L 514.00 741.50 L 509.00 741.50 L 507.00 743.50 L 503.00 743.50 L 501.00 745.50 L 499.00 745.50 L 497.00 747.50 L 493.00 747.50 L 491.00 749.50 L 485.00 749.50 L 483.00 751.50 L 479.00 751.50 L 477.00 753.50 L 473.00 753.50 L 471.00 755.50 L 465.00 755.50 L 463.00 757.50 L 453.00 757.50 L 452.00 758.50 L 451.00 758.50 L 450.00 759.50 L 442.00 759.50 L 440.00 761.50 L 428.00 761.50 L 427.00 762.50 L 426.00 762.50 L 425.00 763.50 L 412.00 763.50 L 411.00 764.50 L 409.00 764.50 L 408.00 765.50 Z M 399.50 747.00 L 400.00 746.50 L 401.00 746.50 L 402.00 745.50 L 420.00 745.50 L 421.00 744.50 L 422.00 744.50 L 423.00 743.50 L 434.00 743.50 L 435.00 742.50 L 436.00 742.50 L 437.00 741.50 L 445.00 741.50 L 446.00 740.50 L 447.00 740.50 L 448.00 739.50 L 456.00 739.50 L 458.00 737.50 L 465.00 737.50 L 467.00 735.50 L 471.00 735.50 L 473.00 733.50 L 478.00 733.50 L 480.00 731.50 L 484.00 731.50 L 486.00 729.50 L 491.00 729.50 L 492.00 728.50 L 493.00 728.50 L 494.00 727.50 L 497.00 727.50 L 499.00 725.50 L 502.00 725.50 L 504.00 723.50 L 508.00 723.50 L 510.00 721.50 L 513.00 721.50 L 515.00 719.50 L 518.00 719.50 L 520.00 717.50 L 522.00 717.50 L 524.00 715.50 L 527.00 715.50 L 529.00 713.50 L 531.00 713.50 L 533.00 711.50 L 535.00 711.50 L 537.00 709.50 L 539.00 709.50 L 541.00 707.50 L 543.00 707.50 L 545.00 705.50 L 547.00 705.50 L 549.00 703.50 L 551.00 703.50 L 551.50 703.00 L 551.50 702.00 L 552.00 701.50 L 553.00 701.50 L 555.00 699.50 L 557.00 699.50 L 559.00 697.50 L 562.00 697.50 L 562.50 697.00 L 562.50 696.00 L 563.00 695.50 L 564.00 695.50 L 565.00 694.50 L 566.00 694.50 L 567.00 693.50 L 568.00 693.50 L 570.00 691.50 L 571.00 691.50 L 573.00 689.50 L 575.00 689.50 L 575.50 689.00 L 575.50 688.00 L 576.00 687.50 L 577.00 687.50 L 579.00 685.50 L 580.00 685.50 L 582.00 683.50 L 583.00 683.50 L 585.00 681.50 L 587.00 681.50 L 589.00 679.50 L 590.00 679.50 L 590.50 679.00 L 590.50 678.00 L 591.00 677.50 L 592.00 677.50 L 594.00 675.50 L 596.00 675.50 L 596.50 675.00 L 596.50 674.00 L 597.00 673.50 L 598.00 673.50 L 602.00 669.50 L 603.00 669.50 L 603.50 669.00 L 603.50 668.00 L 604.00 667.50 L 605.00 667.50 L 607.00 665.50 L 608.00 665.50 L 610.00 663.50 L 611.00 663.50 L 611.50 663.00 L 611.50 662.00 L 612.00 661.50 L 613.00 661.50 L 617.00 657.50 L 618.00 657.50 L 618.50 657.00 L 618.50 656.00 L 619.00 655.50 L 620.00 655.50 L 620.50 655.00 L 620.50 654.00 L 621.00 653.50 L 622.00 653.50 L 622.50 653.00 L 622.50 652.00 L 623.00 651.50 L 624.00 651.50 L 630.00 645.50 L 631.00 645.50 L 631.50 645.00 L 631.50 644.00 L 632.00 643.50 L 633.00 643.50 L 633.50 643.00 L 633.50 642.00 L 634.00 641.50 L 635.00 641.50 L 635.50 641.00 L 635.50 640.00 L 636.00 639.50 L 637.00 639.50 L 647.00 629.50 L 648.00 629.50 L 648.50 629.00 L 648.50 628.00 L 649.00 627.50 L 650.00 627.50 L 650.50 627.00 L 650.50 626.00 L 652.50 624.00 L 652.50 623.00 L 662.00 613.50 L 663.00 613.50 L 663.50 613.00 L 663.50 612.00 L 665.50 610.00 L 665.50 609.00 L 667.50 607.00 L 667.50 606.00 L 668.00 605.50 L 669.00 605.50 L 669.50 605.00 L 669.50 603.00 L 675.50 597.00 L 675.50 596.00 L 676.50 595.00 L 676.50 594.00 L 677.00 593.50 L 678.00 593.50 L 678.50 593.00 L 678.50 592.00 L 679.00 591.50 L 680.00 591.50 L 680.50 591.00 L 680.50 589.00 L 682.50 587.00 L 682.50 586.00 L 683.00 585.50 L 684.00 585.50 L 684.50 585.00 L 684.50 583.00 L 688.50 579.00 L 688.50 578.00 L 689.50 577.00 L 689.50 576.00 L 690.00 575.50 L 691.00 575.50 L 691.50 575.00 L 691.50 574.00 L 692.50 573.00 L 692.50 572.00 L 693.50 571.00 L 693.50 570.00 L 694.00 569.50 L 695.00 569.50 L 695.50 569.00 L 695.50 567.00 L 697.50 565.00 L 697.50 564.00 L 698.00 563.50 L 699.00 563.50 L 699.50 563.00 L 699.50 561.00 L 701.50 559.00 L 701.50 558.00 L 703.50 556.00 L 703.50 555.00 L 704.50 554.00 L 704.50 553.00 L 706.50 551.00 L 706.50 549.00 L 708.50 547.00 L 708.50 546.00 L 710.50 544.00 L 710.50 542.00 L 712.50 540.00 L 712.50 537.00 L 714.50 535.00 L 714.50 533.00 L 716.50 531.00 L 716.50 529.00 L 718.50 527.00 L 718.50 525.00 L 720.50 523.00 L 720.50 522.00 L 721.50 521.00 L 721.50 518.00 L 722.00 517.50 L 723.00 517.50 L 723.50 517.00 L 723.50 513.00 L 725.50 511.00 L 725.50 509.00 L 727.50 507.00 L 727.50 504.00 L 729.50 502.00 L 729.50 498.00 L 731.50 496.00 L 731.50 493.00 L 732.50 492.00 L 732.50 491.00 L 733.50 490.00 L 733.50 487.00 L 734.50 486.00 L 734.50 485.00 L 736.50 483.00 L 736.50 479.00 L 738.50 477.00 L 738.50 471.00 L 740.50 469.00 L 740.50 463.00 L 742.50 461.00 L 742.50 455.00 L 744.50 453.00 L 744.50 447.00 L 746.50 445.00 L 746.50 436.00 L 747.50 435.00 L 747.50 433.00 L 748.50 432.00 L 748.50 424.00 L 749.50 423.00 L 748.50 422.00 L 749.50 421.00 L 749.50 413.00 L 750.50 412.00 L 750.50 411.00 L 751.50 410.00 L 751.50 386.00 L 752.50 385.00 L 752.50 384.00 L 753.50 383.00 L 753.50 377.00 L 752.50 376.00 L 752.50 370.00 L 753.50 369.00 L 753.50 360.00 L 752.50 359.00 L 752.50 358.00 L 751.50 357.00 L 751.50 332.00 L 750.50 331.00 L 750.50 329.00 L 749.50 328.00 L 749.50 317.00 L 748.50 316.00 L 748.50 309.00 L 747.50 308.00 L 747.50 306.00 L 746.50 305.00 L 746.50 296.00 L 744.50 294.00 L 744.50 290.00 L 742.50 288.00 L 742.50 284.00 L 742.00 283.50 L 741.00 283.50 L 740.50 283.00 L 740.50 276.00 L 738.50 274.00 L 738.50 268.00 L 737.50 267.00 L 737.50 266.00 L 736.50 265.00 L 736.50 262.00 L 735.50 261.00 L 735.50 260.00 L 734.50 259.00 L 734.50 258.00 L 733.50 257.00 L 733.50 255.00 L 731.50 253.00 L 731.50 249.00 L 729.50 247.00 L 729.50 243.00 L 727.50 241.00 L 727.50 238.00 L 727.00 237.50 L 726.00 237.50 L 725.50 237.00 L 725.50 234.00 L 725.00 233.50 L 724.00 233.50 L 723.50 233.00 L 723.50 230.00 L 721.50 228.00 L 721.50 224.00 L 719.50 222.00 L 719.50 221.00 L 718.50 220.00 L 718.50 218.00 L 716.50 216.00 L 716.50 215.00 L 714.50 213.00 L 714.50 211.00 L 712.50 209.00 L 712.50 206.00 L 710.50 204.00 L 710.50 202.00 L 710.00 201.50 L 709.00 201.50 L 708.50 201.00 L 708.50 199.00 L 706.50 197.00 L 706.50 196.00 L 705.50 195.00 L 705.50 194.00 L 703.50 192.00 L 703.50 190.00 L 701.50 188.00 L 701.50 187.00 L 699.50 185.00 L 699.50 184.00 L 699.00 183.50 L 698.00 183.50 L 697.50 183.00 L 697.50 182.00 L 695.50 180.00 L 695.50 178.00 L 693.50 176.00 L 693.50 174.00 L 693.00 173.50 L 692.00 173.50 L 691.50 173.00 L 691.50 172.00 L 689.50 170.00 L 689.50 169.00 L 686.50 166.00 L 686.50 165.00 L 684.50 163.00 L 684.50 162.00 L 684.00 161.50 L 683.00 161.50 L 682.50 161.00 L 682.50 160.00 L 678.50 156.00 L 678.50 154.00 L 678.00 153.50 L 677.00 153.50 L 676.50 153.00 L 676.50 152.00 L 676.00 151.50 L 675.00 151.50 L 674.50 151.00 L 674.50 150.00 L 671.50 147.00 L 671.50 146.00 L 671.00 145.50 L 670.00 145.50 L 669.50 145.00 L 669.50 144.00 L 667.50 142.00 L 667.50 141.00 L 665.50 139.00 L 665.50 138.00 L 665.00 137.50 L 664.00 137.50 L 663.50 137.00 L 663.50 136.00 L 663.00 135.50 L 662.00 135.50 L 661.50 135.00 L 661.50 134.00 L 658.50 131.00 L 658.50 130.00 L 658.00 129.50 L 657.00 129.50 L 656.50 129.00 L 656.50 128.00 L 656.00 127.50 L 655.00 127.50 L 652.50 125.00 L 652.50 124.00 L 652.00 123.50 L 651.00 123.50 L 650.50 123.00 L 650.50 122.00 L 650.00 121.50 L 649.00 121.50 L 648.50 121.00 L 648.50 120.00 L 648.00 119.50 L 647.00 119.50 L 639.00 111.50 L 638.00 111.50 L 637.50 111.00 L 637.50 110.00 L 637.00 109.50 L 636.00 109.50 L 635.50 109.00 L 635.50 108.00 L 635.00 107.50 L 634.00 107.50 L 633.50 107.00 L 633.50 106.00 L 633.00 105.50 L 632.00 105.50 L 626.00 99.50 L 625.00 99.50 L 624.50 99.00 L 624.50 98.00 L 624.00 97.50 L 623.00 97.50 L 622.50 97.00 L 622.50 96.00 L 622.00 95.50 L 619.00 95.50 L 618.50 95.00 L 618.50 94.00 L 618.00 93.50 L 617.00 93.50 L 611.00 87.50 L 609.00 87.50 L 607.00 85.50 L 606.00 85.50 L 605.50 85.00 L 605.50 84.00 L 605.00 83.50 L 603.00 83.50 L 601.00 81.50 L 600.00 81.50 L 596.00 77.50 L 594.00 77.50 L 592.00 75.50 L 591.00 75.50 L 590.50 75.00 L 590.50 74.00 L 590.00 73.50 L 589.00 73.50 L 587.00 71.50 L 586.00 71.50 L 584.00 69.50 L 583.00 69.50 L 581.00 67.50 L 579.00 67.50 L 577.00 65.50 L 576.00 65.50 L 574.00 63.50 L 572.00 63.50 L 570.00 61.50 L 568.00 61.50 L 566.00 59.50 L 565.00 59.50 L 564.50 59.00 L 564.50 58.00 L 564.00 57.50 L 562.00 57.50 L 560.00 55.50 L 559.00 55.50 L 557.00 53.50 L 553.00 53.50 L 551.00 51.50 L 549.00 51.50 L 547.00 49.50 L 546.00 49.50 L 544.00 47.50 L 540.00 47.50 L 538.00 45.50 L 535.00 45.50 L 533.00 43.50 L 530.00 43.50 L 528.00 41.50 L 526.00 41.50 L 525.50 41.00 L 525.50 40.00 L 525.00 39.50 L 521.00 39.50 L 519.00 37.50 L 514.00 37.50 L 513.50 37.00 L 513.50 36.00 L 513.00 35.50 L 507.00 35.50 L 505.00 33.50 L 502.00 33.50 L 500.00 31.50 L 496.00 31.50 L 494.00 29.50 L 488.00 29.50 L 486.00 27.50 L 478.00 27.50 L 476.00 25.50 L 472.00 25.50 L 470.00 23.50 L 462.00 23.50 L 460.00 21.50 L 451.00 21.50 L 450.00 20.50 L 449.00 20.50 L 448.00 19.50 L 427.00 19.50 L 426.00 18.50 L 425.00 18.50 L 424.00 17.50 L 374.00 17.50 L 373.00 18.50 L 372.00 18.50 L 371.00 19.50 L 354.00 19.50 L 353.00 20.50 L 352.00 20.50 L 351.00 21.50 L 339.00 21.50 L 338.00 22.50 L 337.00 22.50 L 336.00 23.50 L 329.00 23.50 L 327.00 25.50 L 320.00 25.50 L 318.00 27.50 L 311.00 27.50 L 310.50 28.00 L 310.50 29.00 L 310.00 29.50 L 303.00 29.50 L 301.00 31.50 L 297.00 31.50 L 295.00 33.50 L 291.00 33.50 L 289.00 35.50 L 284.00 35.50 L 282.00 37.50 L 277.00 37.50 L 275.00 39.50 L 272.00 39.50 L 270.00 41.50 L 267.00 41.50 L 265.00 43.50 L 262.00 43.50 L 260.00 45.50 L 257.00 45.50 L 255.00 47.50 L 252.00 47.50 L 250.00 49.50 L 248.00 49.50 L 246.00 51.50 L 243.00 51.50 L 242.50 52.00 L 242.50 53.00 L 242.00 53.50 L 239.00 53.50 L 237.00 55.50 L 234.00 55.50 L 233.50 56.00 L 233.50 57.00 L 233.00 57.50 L 230.00 57.50 L 229.50 58.00 L 229.50 59.00 L 229.00 59.50 L 227.00 59.50 L 225.00 61.50 L 223.00 61.50 L 222.50 62.00 L 222.50 63.00 L 222.00 63.50 L 219.00 63.50 L 218.50 64.00 L 218.50 65.00 L 218.00 65.50 L 215.00 65.50 L 214.50 66.00 L 214.50 67.00 L 214.00 67.50 L 212.00 67.50 L 210.00 69.50 L 208.00 69.50 L 207.50 70.00 L 207.50 71.00 L 207.00 71.50 L 204.00 71.50 L 203.50 72.00 L 203.50 73.00 L 203.00 73.50 L 202.00 73.50 L 201.50 74.00 L 201.50 75.00 L 201.00 75.50 L 199.00 75.50 L 197.00 77.50 L 196.00 77.50 L 194.00 79.50 L 193.00 79.50 L 191.00 81.50 L 189.00 81.50 L 188.50 82.00 L 188.50 83.00 L 188.00 83.50 L 187.00 83.50 L 185.00 85.50 L 183.00 85.50 L 179.00 89.50 L 178.00 89.50 L 177.50 90.00 L 177.50 91.00 L 177.00 91.50 L 176.00 91.50 L 174.00 93.50 L 172.00 93.50 L 171.50 94.00 L 171.50 95.00 L 171.00 95.50 L 170.00 95.50 L 166.00 99.50 L 165.00 99.50 L 163.00 101.50 L 162.00 101.50 L 160.00 103.50 L 159.00 103.50 L 158.50 104.00 L 158.50 105.00 L 158.00 105.50 L 157.00 105.50 L 156.50 106.00 L 156.50 107.00 L 156.00 107.50 L 155.00 107.50 L 149.00 113.50 L 148.00 113.50 L 147.50 114.00 L 147.50 115.00 L 147.00 115.50 L 146.00 115.50 L 145.50 116.00 L 145.50 117.00 L 145.00 117.50 L 144.00 117.50 L 134.00 127.50 L 133.00 127.50 L 132.50 128.00 L 132.50 129.00 L 132.00 129.50 L 131.00 129.50 L 130.50 130.00 L 130.50 131.00 L 130.00 131.50 L 129.00 131.50 L 128.50 132.00 L 128.50 133.00 L 128.00 133.50 L 127.00 133.50 L 122.50 138.00 L 122.50 139.00 L 119.50 142.00 L 119.50 143.00 L 119.00 143.50 L 118.00 143.50 L 117.50 144.00 L 117.50 145.00 L 117.00 145.50 L 116.00 145.50 L 115.50 146.00 L 115.50 147.00 L 115.00 147.50 L 114.00 147.50 L 113.50 148.00 L 113.50 149.00 L 113.00 149.50 L 112.00 149.50 L 111.50 150.00 L 111.50 151.00 L 108.50 154.00 L 108.50 155.00 L 106.00 157.50 L 105.00 157.50 L 104.50 158.00 L 104.50 159.00 L 104.00 159.50 L 103.00 159.50 L 102.50 160.00 L 102.50 162.00 L 100.50 164.00 L 100.50 165.00 L 100.00 165.50 L 99.00 165.50 L 98.50 166.00 L 98.50 167.00 L 96.50 169.00 L 96.50 170.00 L 92.50 174.00 L 92.50 175.00 L 91.50 176.00 L 91.50 177.00 L 91.00 177.50 L 90.00 177.50 L 89.50 178.00 L 89.50 179.00 L 87.50 181.00 L 87.50 183.00 L 87.00 183.50 L 86.00 183.50 L 85.50 184.00 L 85.50 185.00 L 83.50 187.00 L 83.50 189.00 L 83.00 189.50 L 82.00 189.50 L 81.50 190.00 L 81.50 192.00 L 78.50 195.00 L 78.50 196.00 L 76.50 198.00 L 76.50 199.00 L 74.50 201.00 L 74.50 203.00 L 74.00 203.50 L 73.00 203.50 L 72.50 204.00 L 72.50 207.00 L 72.00 207.50 L 71.00 207.50 L 70.50 208.00 L 70.50 210.00 L 68.50 212.00 L 68.50 214.00 L 66.50 216.00 L 66.50 218.00 L 64.50 220.00 L 64.50 222.00 L 61.50 225.00 L 61.50 227.00 L 61.00 227.50 L 60.00 227.50 L 59.50 228.00 L 59.50 231.00 L 59.00 231.50 L 58.00 231.50 L 57.50 232.00 L 57.50 235.00 L 55.50 237.00 L 55.50 240.00 L 55.00 240.50 L 54.00 240.50 L 53.50 241.00 L 53.50 244.00 L 51.50 246.00 L 51.50 248.00 L 49.50 250.00 L 49.50 254.00 L 48.50 255.00 L 48.50 256.00 L 46.50 258.00 L 46.50 261.00 L 46.00 261.50 L 45.00 261.50 L 44.50 262.00 L 44.50 265.00 L 44.00 265.50 L 43.00 265.50 L 42.50 266.00 L 42.50 271.00 L 42.00 271.50 L 41.00 271.50 L 40.50 272.00 L 40.50 279.00 L 38.50 281.00 L 38.50 286.00 L 36.50 288.00 L 36.50 291.00 L 35.50 292.00 L 35.50 293.00 L 34.50 294.00 L 34.50 298.00 L 33.50 299.00 L 33.50 301.00 L 32.50 302.00 L 32.50 303.00 L 31.50 304.00 L 31.50 311.00 L 31.00 311.50 L 30.00 311.50 L 29.50 312.00 L 29.50 320.00 L 27.50 322.00 L 27.50 330.00 L 25.50 332.00 L 25.50 343.00 L 23.50 345.00 L 23.50 362.00 L 22.50 363.00 L 22.50 364.00 L 21.50 365.00 L 21.50 412.00 L 22.50 413.00 L 22.50 416.00 L 23.50 417.00 L 23.50 434.00 L 25.50 436.00 L 25.50 445.00 L 27.50 447.00 L 27.50 455.00 L 29.50 457.00 L 29.50 469.00 L 31.50 471.00 L 31.50 477.00 L 33.50 479.00 L 33.50 480.00 L 34.50 481.00 L 34.50 484.00 L 35.50 485.00 L 35.50 486.00 L 36.50 487.00 L 36.50 493.00 L 38.50 495.00 L 38.50 500.00 L 40.50 502.00 L 40.50 506.00 L 42.50 508.00 L 42.50 511.00 L 44.50 513.00 L 44.50 517.00 L 46.50 519.00 L 46.50 523.00 L 47.00 523.50 L 48.00 523.50 L 48.50 524.00 L 48.50 525.00 L 49.50 526.00 L 49.50 529.00 L 51.50 531.00 L 51.50 533.00 L 53.50 535.00 L 53.50 538.00 L 55.50 540.00 L 55.50 543.00 L 57.50 545.00 L 57.50 547.00 L 59.50 549.00 L 59.50 552.00 L 61.50 554.00 L 61.50 555.00 L 62.50 556.00 L 62.50 557.00 L 64.50 559.00 L 64.50 561.00 L 66.50 563.00 L 66.50 564.00 L 68.50 566.00 L 68.50 568.00 L 70.50 570.00 L 70.50 573.00 L 71.00 573.50 L 72.00 573.50 L 72.50 574.00 L 72.50 575.00 L 74.50 577.00 L 74.50 579.00 L 75.00 579.50 L 76.00 579.50 L 76.50 580.00 L 76.50 581.00 L 78.50 583.00 L 78.50 584.00 L 81.50 587.00 L 81.50 589.00 L 82.00 589.50 L 83.00 589.50 L 83.50 590.00 L 83.50 591.00 L 85.50 593.00 L 85.50 595.00 L 86.00 595.50 L 87.00 595.50 L 87.50 596.00 L 87.50 598.00 L 89.50 600.00 L 89.50 601.00 L 90.00 601.50 L 91.00 601.50 L 91.50 602.00 L 91.50 603.00 L 94.50 606.00 L 94.50 607.00 L 99.00 611.50 L 102.00 611.50 L 102.50 611.00 L 102.50 610.00 L 103.00 609.50 L 104.00 609.50 L 104.50 609.00 L 104.50 608.00 L 106.50 606.00 L 106.50 605.00 L 111.50 600.00 L 111.50 599.00 L 113.50 597.00 L 113.50 596.00 L 114.00 595.50 L 115.00 595.50 L 115.50 595.00 L 115.50 594.00 L 116.00 593.50 L 117.00 593.50 L 117.50 593.00 L 117.50 592.00 L 118.00 591.50 L 119.00 591.50 L 129.00 581.50 L 130.00 581.50 L 130.50 581.00 L 130.50 580.00 L 131.00 579.50 L 132.00 579.50 L 132.50 579.00 L 132.50 578.00 L 133.00 577.50 L 134.00 577.50 L 140.00 571.50 L 141.00 571.50 L 141.50 571.00 L 141.50 570.00 L 142.00 569.50 L 143.00 569.50 L 143.50 569.00 L 143.50 568.00 L 144.00 567.50 L 145.00 567.50 L 145.50 567.00 L 145.50 566.00 L 146.00 565.50 L 147.00 565.50 L 149.00 563.50 L 151.00 563.50 L 155.00 559.50 L 156.00 559.50 L 156.50 559.00 L 156.50 558.00 L 157.00 557.50 L 158.00 557.50 L 158.50 557.00 L 158.50 556.00 L 159.00 555.50 L 160.00 555.50 L 164.00 551.50 L 165.00 551.50 L 167.00 549.50 L 168.00 549.50 L 170.00 547.50 L 171.00 547.50 L 171.50 547.00 L 171.50 546.00 L 172.00 545.50 L 173.00 545.50 L 175.00 543.50 L 177.00 543.50 L 177.50 543.00 L 177.50 542.00 L 178.00 541.50 L 179.00 541.50 L 181.00 539.50 L 182.00 539.50 L 182.50 539.00 L 182.50 538.00 L 183.00 537.50 L 185.00 537.50 L 187.00 535.50 L 188.00 535.50 L 188.50 535.00 L 188.50 534.00 L 189.00 533.50 L 191.00 533.50 L 193.00 531.50 L 194.00 531.50 L 196.00 529.50 L 197.00 529.50 L 199.00 527.50 L 200.00 527.50 L 202.00 525.50 L 203.00 525.50 L 203.50 525.00 L 203.50 524.00 L 204.00 523.50 L 206.00 523.50 L 208.00 521.50 L 209.00 521.50 L 211.00 519.50 L 213.00 519.50 L 215.00 517.50 L 216.00 517.50 L 218.00 515.50 L 220.00 515.50 L 222.00 513.50 L 224.00 513.50 L 228.00 509.50 L 229.00 509.50 L 231.00 507.50 L 233.00 507.50 L 235.00 505.50 L 237.00 505.50 L 239.00 503.50 L 240.00 503.50 L 240.50 503.00 L 240.50 502.00 L 241.00 501.50 L 244.00 501.50 L 244.50 501.00 L 244.50 500.00 L 245.00 499.50 L 248.00 499.50 L 250.00 497.50 L 252.00 497.50 L 254.00 495.50 L 257.00 495.50 L 257.50 495.00 L 257.50 494.00 L 258.00 493.50 L 259.00 493.50 L 260.00 492.50 L 261.00 492.50 L 262.00 491.50 L 263.00 491.50 L 265.00 489.50 L 267.00 489.50 L 269.00 487.50 L 272.00 487.50 L 272.50 487.00 L 272.50 486.00 L 273.00 485.50 L 275.00 485.50 L 277.00 483.50 L 279.00 483.50 L 281.00 481.50 L 283.00 481.50 L 285.00 479.50 L 287.00 479.50 L 287.50 479.00 L 287.50 478.00 L 288.00 477.50 L 291.00 477.50 L 291.50 477.00 L 291.50 476.00 L 292.00 475.50 L 295.00 475.50 L 297.00 473.50 L 299.00 473.50 L 301.00 471.50 L 304.00 471.50 L 304.50 471.00 L 304.50 470.00 L 305.00 469.50 L 308.00 469.50 L 310.00 467.50 L 312.00 467.50 L 314.00 465.50 L 317.00 465.50 L 317.50 465.00 L 317.50 464.00 L 318.00 463.50 L 321.00 463.50 L 323.00 461.50 L 325.00 461.50 L 327.00 459.50 L 330.00 459.50 L 332.00 457.50 L 336.00 457.50 L 338.00 455.50 L 341.00 455.50 L 343.00 453.50 L 346.00 453.50 L 348.00 451.50 L 351.00 451.50 L 353.00 449.50 L 358.00 449.50 L 358.50 449.00 L 358.50 448.00 L 359.00 447.50 L 362.00 447.50 L 364.00 445.50 L 368.00 445.50 L 369.00 444.50 L 374.00 444.50 L 375.50 446.00 L 375.50 448.00 L 372.00 451.50 L 367.00 451.50 L 366.50 452.00 L 366.50 453.00 L 366.00 453.50 L 363.00 453.50 L 361.00 455.50 L 359.00 455.50 L 358.50 456.00 L 358.50 457.00 L 358.00 457.50 L 356.00 457.50 L 354.00 459.50 L 351.00 459.50 L 349.00 461.50 L 347.00 461.50 L 345.00 463.50 L 344.00 463.50 L 342.00 465.50 L 341.00 465.50 L 339.00 467.50 L 337.00 467.50 L 335.00 469.50 L 332.00 469.50 L 330.00 471.50 L 328.00 471.50 L 326.00 473.50 L 325.00 473.50 L 323.00 475.50 L 321.00 475.50 L 319.00 477.50 L 316.00 477.50 L 315.50 478.00 L 315.50 479.00 L 315.00 479.50 L 313.00 479.50 L 311.00 481.50 L 309.00 481.50 L 308.50 482.00 L 308.50 483.00 L 308.00 483.50 L 305.00 483.50 L 304.50 484.00 L 304.50 485.00 L 304.00 485.50 L 301.00 485.50 L 300.50 486.00 L 300.50 487.00 L 300.00 487.50 L 299.00 487.50 L 297.00 489.50 L 295.00 489.50 L 293.00 491.50 L 292.00 491.50 L 291.50 492.00 L 291.50 493.00 L 291.00 493.50 L 288.00 493.50 L 287.50 494.00 L 287.50 495.00 L 287.00 495.50 L 285.00 495.50 L 283.00 497.50 L 282.00 497.50 L 280.00 499.50 L 279.00 499.50 L 278.50 500.00 L 278.50 501.00 L 278.00 501.50 L 275.00 501.50 L 274.50 502.00 L 274.50 503.00 L 274.00 503.50 L 272.00 503.50 L 270.00 505.50 L 269.00 505.50 L 265.00 509.50 L 264.00 509.50 L 263.00 510.50 L 262.00 510.50 L 261.00 511.50 L 260.00 511.50 L 258.00 513.50 L 256.00 513.50 L 255.50 514.00 L 255.50 515.00 L 255.00 515.50 L 254.00 515.50 L 252.00 517.50 L 251.00 517.50 L 249.00 519.50 L 247.00 519.50 L 246.50 520.00 L 246.50 521.00 L 246.00 521.50 L 245.00 521.50 L 241.00 525.50 L 239.00 525.50 L 237.00 527.50 L 236.00 527.50 L 235.50 528.00 L 235.50 529.00 L 235.00 529.50 L 234.00 529.50 L 233.50 530.00 L 233.50 531.00 L 233.00 531.50 L 232.00 531.50 L 231.00 532.50 L 230.00 532.50 L 229.00 533.50 L 228.00 533.50 L 224.00 537.50 L 223.00 537.50 L 221.00 539.50 L 220.00 539.50 L 218.00 541.50 L 217.00 541.50 L 216.50 542.00 L 216.50 543.00 L 216.00 543.50 L 215.00 543.50 L 214.50 544.00 L 214.50 545.00 L 214.00 545.50 L 213.00 545.50 L 209.00 549.50 L 208.00 549.50 L 206.00 551.50 L 205.00 551.50 L 203.00 553.50 L 202.00 553.50 L 201.50 554.00 L 201.50 555.00 L 201.00 555.50 L 200.00 555.50 L 192.00 563.50 L 191.00 563.50 L 190.50 564.00 L 190.50 565.00 L 190.00 565.50 L 189.00 565.50 L 188.50 566.00 L 188.50 567.00 L 188.00 567.50 L 187.00 567.50 L 183.00 571.50 L 182.00 571.50 L 181.50 572.00 L 181.50 573.00 L 181.00 573.50 L 180.00 573.50 L 164.00 589.50 L 163.00 589.50 L 162.50 590.00 L 162.50 591.00 L 162.00 591.50 L 161.00 591.50 L 160.50 592.00 L 160.50 593.00 L 160.00 593.50 L 159.00 593.50 L 158.50 594.00 L 158.50 595.00 L 158.00 595.50 L 157.00 595.50 L 156.50 596.00 L 156.50 597.00 L 151.50 602.00 L 151.50 603.00 L 151.00 603.50 L 150.00 603.50 L 149.50 604.00 L 149.50 605.00 L 149.00 605.50 L 148.00 605.50 L 147.50 606.00 L 147.50 607.00 L 145.50 609.00 L 145.50 611.00 L 145.00 611.50 L 144.00 611.50 L 143.50 612.00 L 143.50 613.00 L 141.50 615.00 L 141.50 616.00 L 137.50 620.00 L 137.50 621.00 L 136.50 622.00 L 136.50 623.00 L 134.00 625.50 L 133.00 625.50 L 132.50 626.00 L 132.50 628.00 L 130.50 630.00 L 130.50 632.00 L 128.50 634.00 L 128.50 636.00 L 126.50 638.00 L 126.50 640.00 L 124.50 642.00 L 124.50 646.00 L 122.50 648.00 L 122.50 652.00 L 121.50 653.00 L 121.50 654.00 L 120.50 655.00 L 120.50 663.00 L 121.50 664.00 L 121.50 665.00 L 122.50 666.00 L 122.50 669.00 L 131.00 677.50 L 133.00 677.50 L 135.00 679.50 L 136.00 679.50 L 138.00 681.50 L 141.00 681.50 L 143.00 683.50 L 147.00 683.50 L 149.00 685.50 L 156.00 685.50 L 158.00 687.50 L 172.00 687.50 L 174.00 689.50 L 202.00 689.50 L 203.00 688.50 L 205.00 688.50 L 206.00 687.50 L 223.00 687.50 L 224.00 686.50 L 225.00 686.50 L 226.00 685.50 L 237.00 685.50 L 239.00 683.50 L 249.00 683.50 L 251.00 681.50 L 259.00 681.50 L 261.00 679.50 L 270.00 679.50 L 270.50 679.00 L 270.50 678.00 L 271.00 677.50 L 277.00 677.50 L 279.00 675.50 L 285.00 675.50 L 287.00 673.50 L 293.00 673.50 L 295.00 671.50 L 299.00 671.50 L 301.00 669.50 L 304.00 669.50 L 305.00 668.50 L 306.00 668.50 L 307.00 667.50 L 311.00 667.50 L 313.00 665.50 L 318.00 665.50 L 320.00 663.50 L 324.00 663.50 L 326.00 661.50 L 330.00 661.50 L 330.50 661.00 L 330.50 660.00 L 331.00 659.50 L 334.00 659.50 L 335.00 658.50 L 336.00 658.50 L 337.00 657.50 L 340.00 657.50 L 342.00 655.50 L 346.00 655.50 L 348.00 653.50 L 351.00 653.50 L 353.00 651.50 L 356.00 651.50 L 356.50 651.00 L 356.50 650.00 L 357.00 649.50 L 361.00 649.50 L 363.00 647.50 L 366.00 647.50 L 368.00 645.50 L 371.00 645.50 L 371.50 645.00 L 371.50 644.00 L 372.00 643.50 L 375.00 643.50 L 377.00 641.50 L 379.00 641.50 L 381.00 639.50 L 384.00 639.50 L 384.50 639.00 L 384.50 638.00 L 385.00 637.50 L 388.00 637.50 L 388.50 637.00 L 388.50 636.00 L 389.00 635.50 L 392.00 635.50 L 392.50 635.00 L 392.50 634.00 L 393.00 633.50 L 396.00 633.50 L 398.00 631.50 L 399.00 631.50 L 401.00 629.50 L 403.00 629.50 L 403.50 629.00 L 403.50 628.00 L 404.00 627.50 L 407.00 627.50 L 409.00 625.50 L 411.00 625.50 L 413.00 623.50 L 414.00 623.50 L 414.50 623.00 L 414.50 622.00 L 415.00 621.50 L 417.00 621.50 L 419.00 619.50 L 420.00 619.50 L 422.00 617.50 L 424.00 617.50 L 426.00 615.50 L 427.00 615.50 L 429.00 613.50 L 431.00 613.50 L 431.50 613.00 L 431.50 612.00 L 432.00 611.50 L 434.00 611.50 L 436.00 609.50 L 437.00 609.50 L 439.00 607.50 L 440.00 607.50 L 442.00 605.50 L 443.00 605.50 L 445.00 603.50 L 446.00 603.50 L 446.50 603.00 L 446.50 602.00 L 447.00 601.50 L 449.00 601.50 L 451.00 599.50 L 452.00 599.50 L 456.00 595.50 L 457.00 595.50 L 459.00 593.50 L 460.00 593.50 L 462.00 591.50 L 463.00 591.50 L 463.50 591.00 L 463.50 590.00 L 464.00 589.50 L 465.00 589.50 L 467.00 587.50 L 468.00 587.50 L 470.00 585.50 L 471.00 585.50 L 473.00 583.50 L 474.00 583.50 L 474.50 583.00 L 474.50 582.00 L 475.00 581.50 L 476.00 581.50 L 476.50 581.00 L 476.50 580.00 L 477.00 579.50 L 478.00 579.50 L 478.50 579.00 L 478.50 578.00 L 479.00 577.50 L 480.00 577.50 L 486.00 571.50 L 487.00 571.50 L 487.50 571.00 L 487.50 570.00 L 488.00 569.50 L 489.00 569.50 L 489.50 569.00 L 489.50 568.00 L 490.00 567.50 L 491.00 567.50 L 503.00 555.50 L 504.00 555.50 L 504.50 555.00 L 504.50 554.00 L 505.00 553.50 L 506.00 553.50 L 506.50 553.00 L 506.50 551.00 L 512.50 545.00 L 512.50 544.00 L 514.50 542.00 L 514.50 541.00 L 516.00 539.50 L 517.00 539.50 L 517.50 539.00 L 517.50 538.00 L 518.50 537.00 L 518.50 536.00 L 519.50 535.00 L 519.50 534.00 L 520.00 533.50 L 521.00 533.50 L 521.50 533.00 L 521.50 531.00 L 523.50 529.00 L 523.50 527.00 L 525.50 525.00 L 525.50 523.00 L 527.50 521.00 L 527.50 518.00 L 529.50 516.00 L 529.50 490.00 L 527.50 488.00 L 527.50 485.00 L 525.50 483.00 L 525.50 482.00 L 523.50 480.00 L 523.50 478.00 L 523.00 477.50 L 522.00 477.50 L 521.50 477.00 L 521.50 476.00 L 521.00 475.50 L 520.00 475.50 L 519.50 475.00 L 519.50 474.00 L 519.00 473.50 L 518.00 473.50 L 517.50 473.00 L 517.50 472.00 L 517.00 471.50 L 516.00 471.50 L 512.00 467.50 L 511.00 467.50 L 509.00 465.50 L 508.00 465.50 L 506.00 463.50 L 505.00 463.50 L 503.00 461.50 L 501.00 461.50 L 499.00 459.50 L 498.00 459.50 L 496.00 457.50 L 494.00 457.50 L 493.50 457.00 L 493.50 456.00 L 493.00 455.50 L 490.00 455.50 L 489.50 455.00 L 489.50 454.00 L 489.00 453.50 L 486.00 453.50 L 484.00 451.50 L 482.00 451.50 L 480.00 449.50 L 479.00 449.50 L 478.00 448.50 L 477.00 448.50 L 476.00 447.50 L 474.00 447.50 L 472.00 445.50 L 467.00 445.50 L 465.00 443.50 L 462.00 443.50 L 461.00 442.50 L 460.00 442.50 L 459.00 441.50 L 457.00 441.50 L 455.00 439.50 L 451.00 439.50 L 449.00 437.50 L 444.00 437.50 L 443.00 436.50 L 442.00 436.50 L 441.00 435.50 L 437.00 435.50 L 435.00 433.50 L 430.00 433.50 L 429.50 433.00 L 429.50 432.00 L 429.00 431.50 L 422.00 431.50 L 420.00 429.50 L 412.00 429.50 L 410.00 427.50 L 403.00 427.50 L 401.00 425.50 L 394.00 425.50 L 392.00 423.50 L 385.00 423.50 L 383.00 421.50 L 373.00 421.50 L 372.00 420.50 L 371.00 420.50 L 370.00 419.50 L 363.00 419.50 L 361.00 417.50 L 352.00 417.50 L 350.00 415.50 L 342.00 415.50 L 340.00 413.50 L 327.00 413.50 L 326.00 412.50 L 325.00 412.50 L 324.00 411.50 L 314.00 411.50 L 312.00 409.50 L 302.00 409.50 L 300.00 407.50 L 291.00 407.50 L 289.00 405.50 L 276.00 405.50 L 275.00 404.50 L 274.00 404.50 L 273.00 403.50 L 264.00 403.50 L 262.00 401.50 L 256.00 401.50 L 254.00 399.50 L 245.00 399.50 L 243.00 397.50 L 235.00 397.50 L 233.00 395.50 L 227.00 395.50 L 225.00 393.50 L 219.00 393.50 L 217.00 391.50 L 213.00 391.50 L 211.00 389.50 L 206.00 389.50 L 204.00 387.50 L 201.00 387.50 L 199.00 385.50 L 196.00 385.50 L 194.00 383.50 L 192.00 383.50 L 190.00 381.50 L 188.00 381.50 L 186.00 379.50 L 184.00 379.50 L 182.00 377.50 L 180.00 377.50 L 179.50 377.00 L 179.50 376.00 L 179.00 375.50 L 177.00 375.50 L 175.00 373.50 L 174.00 373.50 L 173.50 373.00 L 173.50 372.00 L 173.00 371.50 L 172.00 371.50 L 171.50 371.00 L 171.50 370.00 L 171.00 369.50 L 170.00 369.50 L 169.50 369.00 L 169.50 368.00 L 169.00 367.50 L 168.00 367.50 L 167.50 367.00 L 167.50 366.00 L 166.50 365.00 L 166.50 364.00 L 164.50 362.00 L 164.50 360.00 L 162.50 358.00 L 162.50 354.00 L 160.50 352.00 L 160.50 341.00 L 162.50 339.00 L 162.50 332.00 L 164.50 330.00 L 164.50 327.00 L 166.50 325.00 L 166.50 323.00 L 167.50 322.00 L 167.50 321.00 L 168.50 320.00 L 168.50 319.00 L 171.50 316.00 L 171.50 314.00 L 172.00 313.50 L 173.00 313.50 L 173.50 313.00 L 173.50 312.00 L 175.50 310.00 L 175.50 309.00 L 177.50 307.00 L 177.50 306.00 L 178.00 305.50 L 179.00 305.50 L 181.50 303.00 L 181.50 302.00 L 184.50 299.00 L 184.50 298.00 L 185.00 297.50 L 186.00 297.50 L 186.50 297.00 L 186.50 296.00 L 187.00 295.50 L 188.00 295.50 L 188.50 295.00 L 188.50 294.00 L 189.00 293.50 L 190.00 293.50 L 190.50 293.00 L 190.50 292.00 L 191.00 291.50 L 192.00 291.50 L 198.00 285.50 L 199.00 285.50 L 199.50 285.00 L 199.50 284.00 L 200.00 283.50 L 201.00 283.50 L 201.50 283.00 L 201.50 282.00 L 202.00 281.50 L 203.00 281.50 L 203.50 281.00 L 203.50 280.00 L 204.00 279.50 L 205.00 279.50 L 209.00 275.50 L 210.00 275.50 L 212.00 273.50 L 213.00 273.50 L 217.00 269.50 L 218.00 269.50 L 218.50 269.00 L 218.50 268.00 L 219.00 267.50 L 220.00 267.50 L 226.00 261.50 L 227.00 261.50 L 227.50 261.00 L 227.50 260.00 L 228.00 259.50 L 230.00 259.50 L 232.00 257.50 L 233.00 257.50 L 233.50 257.00 L 233.50 256.00 L 234.00 255.50 L 235.00 255.50 L 237.00 253.50 L 238.00 253.50 L 240.00 251.50 L 241.00 251.50 L 243.00 249.50 L 244.00 249.50 L 244.50 249.00 L 244.50 248.00 L 245.00 247.50 L 247.00 247.50 L 249.00 245.50 L 250.00 245.50 L 252.00 243.50 L 253.00 243.50 L 255.00 241.50 L 257.00 241.50 L 257.50 241.00 L 257.50 240.00 L 258.00 239.50 L 259.00 239.50 L 259.50 239.00 L 259.50 238.00 L 260.00 237.50 L 261.00 237.50 L 262.00 236.50 L 263.00 236.50 L 264.00 235.50 L 265.00 235.50 L 267.00 233.50 L 268.00 233.50 L 268.50 233.00 L 268.50 232.00 L 269.00 231.50 L 272.00 231.50 L 272.50 231.00 L 272.50 230.00 L 273.00 229.50 L 274.00 229.50 L 276.00 227.50 L 278.00 227.50 L 280.00 225.50 L 282.00 225.50 L 286.00 221.50 L 287.00 221.50 L 289.00 219.50 L 291.00 219.50 L 293.00 217.50 L 295.00 217.50 L 297.00 215.50 L 298.00 215.50 L 298.50 215.00 L 298.50 214.00 L 299.00 213.50 L 302.00 213.50 L 302.50 213.00 L 302.50 212.00 L 303.00 211.50 L 306.00 211.50 L 306.50 211.00 L 306.50 210.00 L 307.00 209.50 L 308.00 209.50 L 310.00 207.50 L 312.00 207.50 L 314.00 205.50 L 315.00 205.50 L 317.00 203.50 L 319.00 203.50 L 321.00 201.50 L 323.00 201.50 L 325.00 199.50 L 326.00 199.50 L 328.00 197.50 L 330.00 197.50 L 332.00 195.50 L 334.00 195.50 L 336.00 193.50 L 339.00 193.50 L 341.00 191.50 L 343.00 191.50 L 343.50 191.00 L 343.50 190.00 L 344.00 189.50 L 347.00 189.50 L 347.50 189.00 L 347.50 188.00 L 348.00 187.50 L 351.00 187.50 L 351.50 187.00 L 351.50 186.00 L 352.00 185.50 L 355.00 185.50 L 357.00 183.50 L 358.00 183.50 L 360.00 181.50 L 362.00 181.50 L 364.00 179.50 L 367.00 179.50 L 369.00 177.50 L 372.00 177.50 L 374.00 175.50 L 377.00 175.50 L 377.50 175.00 L 377.50 174.00 L 378.00 173.50 L 381.00 173.50 L 383.00 171.50 L 386.00 171.50 L 386.50 171.00 L 386.50 170.00 L 387.00 169.50 L 390.00 169.50 L 392.00 167.50 L 394.00 167.50 L 396.00 165.50 L 399.00 165.50 L 399.50 165.00 L 399.50 164.00 L 400.00 163.50 L 404.00 163.50 L 406.00 161.50 L 409.00 161.50 L 411.00 159.50 L 415.00 159.50 L 417.00 157.50 L 420.00 157.50 L 422.00 155.50 L 425.00 155.50 L 427.00 153.50 L 431.00 153.50 L 431.50 153.00 L 431.50 152.00 L 432.00 151.50 L 436.00 151.50 L 438.00 149.50 L 442.00 149.50 L 442.50 149.00 L 442.50 148.00 L 443.00 147.50 L 448.00 147.50 L 448.50 147.00 L 448.50 146.00 L 449.00 145.50 L 453.00 145.50 L 455.00 143.50 L 459.00 143.50 L 461.00 141.50 L 465.00 141.50 L 467.00 139.50 L 472.00 139.50 L 474.00 137.50 L 478.00 137.50 L 480.00 135.50 L 486.00 135.50 L 488.00 133.50 L 494.00 133.50 L 496.00 131.50 L 503.00 131.50 L 505.00 129.50 L 513.00 129.50 L 515.00 127.50 L 525.00 127.50 L 526.00 126.50 L 527.00 126.50 L 528.00 125.50 L 541.00 125.50 L 542.00 124.50 L 545.00 124.50 L 546.00 123.50 L 571.00 123.50 L 572.00 124.50 L 573.00 124.50 L 574.00 125.50 L 584.00 125.50 L 586.00 127.50 L 591.00 127.50 L 593.00 129.50 L 596.00 129.50 L 596.50 130.00 L 596.50 131.00 L 597.00 131.50 L 600.00 131.50 L 600.50 132.00 L 600.50 133.00 L 601.00 133.50 L 602.00 133.50 L 604.00 135.50 L 605.00 135.50 L 605.50 136.00 L 605.50 137.00 L 606.00 137.50 L 607.00 137.50 L 607.50 138.00 L 607.50 139.00 L 608.00 139.50 L 609.00 139.50 L 609.50 140.00 L 609.50 142.00 L 611.50 144.00 L 611.50 145.00 L 612.50 146.00 L 612.50 148.00 L 613.50 149.00 L 613.50 150.00 L 614.50 151.00 L 614.50 164.00 L 613.50 165.00 L 613.50 166.00 L 612.50 167.00 L 612.50 170.00 L 611.50 171.00 L 611.50 173.00 L 611.00 173.50 L 610.00 173.50 L 609.50 174.00 L 609.50 179.00 L 609.00 179.50 L 608.00 179.50 L 607.50 180.00 L 607.50 183.00 L 605.50 185.00 L 605.50 187.00 L 605.00 187.50 L 604.00 187.50 L 603.50 188.00 L 603.50 190.00 L 599.50 194.00 L 599.50 196.00 L 598.00 197.50 L 597.00 197.50 L 596.50 198.00 L 596.50 199.00 L 596.00 199.50 L 595.00 199.50 L 594.50 200.00 L 594.50 202.00 L 592.50 204.00 L 592.50 205.00 L 592.00 205.50 L 591.00 205.50 L 590.50 206.00 L 590.50 207.00 L 588.50 209.00 L 588.50 210.00 L 583.00 215.50 L 582.00 215.50 L 581.50 216.00 L 581.50 217.00 L 577.50 221.00 L 577.50 222.00 L 570.00 229.50 L 569.00 229.50 L 568.50 230.00 L 568.50 231.00 L 568.00 231.50 L 567.00 231.50 L 566.50 232.00 L 566.50 233.00 L 566.00 233.50 L 565.00 233.50 L 564.50 234.00 L 564.50 235.00 L 564.00 235.50 L 563.00 235.50 L 562.50 236.00 L 562.50 237.00 L 562.00 237.50 L 561.00 237.50 L 555.00 243.50 L 554.00 243.50 L 553.50 244.00 L 553.50 245.00 L 553.00 245.50 L 552.00 245.50 L 550.00 247.50 L 549.00 247.50 L 547.00 249.50 L 546.00 249.50 L 545.50 250.00 L 545.50 251.00 L 545.00 251.50 L 544.00 251.50 L 540.00 255.50 L 539.00 255.50 L 538.50 256.00 L 538.50 257.00 L 538.00 257.50 L 537.00 257.50 L 535.00 259.50 L 534.00 259.50 L 532.00 261.50 L 531.00 261.50 L 527.00 265.50 L 526.00 265.50 L 524.00 267.50 L 522.00 267.50 L 521.50 268.00 L 521.50 269.00 L 521.00 269.50 L 519.00 269.50 L 517.00 271.50 L 516.00 271.50 L 512.00 275.50 L 511.00 275.50 L 509.00 277.50 L 507.00 277.50 L 506.50 278.00 L 506.50 279.00 L 506.00 279.50 L 505.00 279.50 L 501.00 283.50 L 499.00 283.50 L 498.00 284.50 L 497.00 284.50 L 496.00 285.50 L 495.00 284.50 L 494.00 284.50 L 493.50 284.00 L 493.50 281.00 L 501.00 273.50 L 502.00 273.50 L 502.50 273.00 L 502.50 272.00 L 503.00 271.50 L 504.00 271.50 L 504.50 271.00 L 504.50 270.00 L 505.00 269.50 L 506.00 269.50 L 510.00 265.50 L 511.00 265.50 L 513.00 263.50 L 514.00 263.50 L 514.50 263.00 L 514.50 262.00 L 515.00 261.50 L 516.00 261.50 L 520.00 257.50 L 521.00 257.50 L 521.50 257.00 L 521.50 256.00 L 522.00 255.50 L 523.00 255.50 L 531.00 247.50 L 532.00 247.50 L 532.50 247.00 L 532.50 246.00 L 533.00 245.50 L 534.00 245.50 L 534.50 245.00 L 534.50 244.00 L 535.00 243.50 L 536.00 243.50 L 536.50 243.00 L 536.50 242.00 L 538.50 240.00 L 538.50 239.00 L 539.00 238.50 L 540.00 238.50 L 540.50 238.00 L 540.50 237.00 L 546.00 231.50 L 547.00 231.50 L 547.50 231.00 L 547.50 230.00 L 548.00 229.50 L 549.00 229.50 L 549.50 229.00 L 549.50 228.00 L 551.50 226.00 L 551.50 225.00 L 559.50 217.00 L 559.50 216.00 L 560.50 215.00 L 560.50 214.00 L 561.00 213.50 L 562.00 213.50 L 562.50 213.00 L 562.50 212.00 L 564.50 210.00 L 564.50 208.00 L 565.00 207.50 L 566.00 207.50 L 566.50 207.00 L 566.50 206.00 L 568.50 204.00 L 568.50 203.00 L 570.50 201.00 L 570.50 200.00 L 572.50 198.00 L 572.50 197.00 L 574.50 195.00 L 574.50 194.00 L 575.50 193.00 L 575.50 191.00 L 577.50 189.00 L 577.50 186.00 L 578.00 185.50 L 579.00 185.50 L 579.50 185.00 L 579.50 167.00 L 577.50 165.00 L 577.50 164.00 L 577.00 163.50 L 576.00 163.50 L 574.00 161.50 L 572.00 161.50 L 570.00 159.50 L 567.00 159.50 L 565.00 157.50 L 529.00 157.50 L 527.00 159.50 L 519.00 159.50 L 517.00 161.50 L 509.00 161.50 L 507.00 163.50 L 501.00 163.50 L 499.00 165.50 L 492.00 165.50 L 491.50 166.00 L 491.50 167.00 L 491.00 167.50 L 486.00 167.50 L 484.00 169.50 L 480.00 169.50 L 478.00 171.50 L 473.00 171.50 L 471.00 173.50 L 466.00 173.50 L 464.00 175.50 L 460.00 175.50 L 458.00 177.50 L 455.00 177.50 L 454.50 178.00 L 454.50 179.00 L 454.00 179.50 L 450.00 179.50 L 448.00 181.50 L 443.00 181.50 L 442.50 182.00 L 442.50 183.00 L 442.00 183.50 L 438.00 183.50 L 437.50 184.00 L 437.50 185.00 L 437.00 185.50 L 434.00 185.50 L 432.00 187.50 L 428.00 187.50 L 426.00 189.50 L 423.00 189.50 L 421.00 191.50 L 419.00 191.50 L 417.00 193.50 L 414.00 193.50 L 412.00 195.50 L 409.00 195.50 L 407.00 197.50 L 404.00 197.50 L 403.50 198.00 L 403.50 199.00 L 403.00 199.50 L 400.00 199.50 L 398.00 201.50 L 396.00 201.50 L 394.00 203.50 L 391.00 203.50 L 390.50 204.00 L 390.50 205.00 L 390.00 205.50 L 387.00 205.50 L 385.00 207.50 L 383.00 207.50 L 381.00 209.50 L 380.00 209.50 L 378.00 211.50 L 376.00 211.50 L 374.00 213.50 L 371.00 213.50 L 369.00 215.50 L 367.00 215.50 L 366.50 216.00 L 366.50 217.00 L 366.00 217.50 L 363.00 217.50 L 362.50 218.00 L 362.50 219.00 L 362.00 219.50 L 360.00 219.50 L 358.00 221.50 L 356.00 221.50 L 354.00 223.50 L 352.00 223.50 L 351.50 224.00 L 351.50 225.00 L 351.00 225.50 L 348.00 225.50 L 347.50 226.00 L 347.50 227.00 L 347.00 227.50 L 346.00 227.50 L 344.00 229.50 L 342.00 229.50 L 340.00 231.50 L 338.00 231.50 L 336.00 233.50 L 335.00 233.50 L 334.50 234.00 L 334.50 235.00 L 334.00 235.50 L 331.00 235.50 L 330.50 236.00 L 330.50 237.00 L 330.00 237.50 L 328.00 237.50 L 326.00 239.50 L 325.00 239.50 L 323.00 241.50 L 321.00 241.50 L 319.00 243.50 L 318.00 243.50 L 317.50 244.00 L 317.50 245.00 L 317.00 245.50 L 315.00 245.50 L 313.00 247.50 L 312.00 247.50 L 310.00 249.50 L 309.00 249.50 L 307.00 251.50 L 305.00 251.50 L 304.50 252.00 L 304.50 253.00 L 304.00 253.50 L 303.00 253.50 L 302.00 254.50 L 301.00 254.50 L 300.00 255.50 L 299.00 255.50 L 295.00 259.50 L 293.00 259.50 L 291.00 261.50 L 290.00 261.50 L 289.50 262.00 L 289.50 263.00 L 289.00 263.50 L 288.00 263.50 L 286.00 265.50 L 285.00 265.50 L 283.00 267.50 L 282.00 267.50 L 280.00 269.50 L 279.00 269.50 L 278.50 270.00 L 278.50 271.00 L 278.00 271.50 L 277.00 271.50 L 275.00 273.50 L 274.00 273.50 L 272.00 275.50 L 271.00 275.50 L 267.00 279.50 L 266.00 279.50 L 265.50 280.00 L 265.50 281.00 L 265.00 281.50 L 264.00 281.50 L 262.00 283.50 L 261.00 283.50 L 259.00 285.50 L 258.00 285.50 L 257.50 286.00 L 257.50 287.00 L 257.00 287.50 L 256.00 287.50 L 250.00 293.50 L 249.00 293.50 L 248.50 294.00 L 248.50 295.00 L 248.00 295.50 L 247.00 295.50 L 246.50 296.00 L 246.50 297.00 L 246.00 297.50 L 245.00 297.50 L 244.50 298.00 L 244.50 299.00 L 244.00 299.50 L 243.00 299.50 L 233.50 309.00 L 233.50 310.00 L 231.50 312.00 L 231.50 313.00 L 231.00 313.50 L 230.00 313.50 L 229.50 314.00 L 229.50 315.00 L 227.50 317.00 L 227.50 318.00 L 225.50 320.00 L 225.50 322.00 L 223.50 324.00 L 223.50 326.00 L 221.50 328.00 L 221.50 331.00 L 220.50 332.00 L 220.50 342.00 L 221.50 343.00 L 221.50 345.00 L 223.50 347.00 L 223.50 348.00 L 227.00 351.50 L 228.00 351.50 L 230.00 353.50 L 231.00 353.50 L 231.50 354.00 L 231.50 355.00 L 232.00 355.50 L 233.00 355.50 L 235.00 357.50 L 237.00 357.50 L 239.00 359.50 L 242.00 359.50 L 242.50 360.00 L 242.50 361.00 L 243.00 361.50 L 246.00 361.50 L 247.00 362.50 L 248.00 362.50 L 249.00 363.50 L 252.00 363.50 L 254.00 365.50 L 258.00 365.50 L 260.00 367.50 L 265.00 367.50 L 265.50 368.00 L 265.50 369.00 L 266.00 369.50 L 273.00 369.50 L 275.00 371.50 L 283.00 371.50 L 285.00 373.50 L 293.00 373.50 L 295.00 375.50 L 303.00 375.50 L 305.00 377.50 L 315.00 377.50 L 317.00 379.50 L 329.00 379.50 L 330.00 380.50 L 331.00 380.50 L 332.00 381.50 L 344.00 381.50 L 346.00 383.50 L 359.00 383.50 L 360.00 384.50 L 361.00 384.50 L 362.00 385.50 L 373.00 385.50 L 374.00 386.50 L 375.00 386.50 L 376.00 387.50 L 388.00 387.50 L 390.00 389.50 L 401.00 389.50 L 403.00 391.50 L 415.00 391.50 L 417.00 393.50 L 428.00 393.50 L 430.00 395.50 L 441.00 395.50 L 442.00 396.50 L 443.00 396.50 L 444.00 397.50 L 452.00 397.50 L 453.00 398.50 L 454.00 398.50 L 455.00 399.50 L 463.00 399.50 L 465.00 401.50 L 473.00 401.50 L 475.00 403.50 L 482.00 403.50 L 484.00 405.50 L 490.00 405.50 L 492.00 407.50 L 499.00 407.50 L 499.50 408.00 L 499.50 409.00 L 500.00 409.50 L 506.00 409.50 L 508.00 411.50 L 513.00 411.50 L 515.00 413.50 L 520.00 413.50 L 522.00 415.50 L 527.00 415.50 L 527.50 416.00 L 527.50 417.00 L 528.00 417.50 L 532.00 417.50 L 534.00 419.50 L 537.00 419.50 L 539.00 421.50 L 542.00 421.50 L 542.50 422.00 L 542.50 423.00 L 543.00 423.50 L 546.00 423.50 L 548.00 425.50 L 551.00 425.50 L 551.50 426.00 L 551.50 427.00 L 552.00 427.50 L 555.00 427.50 L 557.00 429.50 L 559.00 429.50 L 561.00 431.50 L 563.00 431.50 L 565.00 433.50 L 566.00 433.50 L 568.00 435.50 L 570.00 435.50 L 574.00 439.50 L 576.00 439.50 L 578.00 441.50 L 579.00 441.50 L 579.50 442.00 L 579.50 443.00 L 580.00 443.50 L 581.00 443.50 L 581.50 444.00 L 581.50 445.00 L 582.00 445.50 L 583.00 445.50 L 591.00 453.50 L 592.00 453.50 L 592.50 454.00 L 592.50 455.00 L 594.50 457.00 L 594.50 458.00 L 596.50 460.00 L 596.50 461.00 L 597.00 461.50 L 598.00 461.50 L 598.50 462.00 L 598.50 463.00 L 599.50 464.00 L 599.50 465.00 L 601.50 467.00 L 601.50 470.00 L 603.50 472.00 L 603.50 477.00 L 605.50 479.00 L 605.50 501.00 L 603.50 503.00 L 603.50 507.00 L 601.50 509.00 L 601.50 513.00 L 599.50 515.00 L 599.50 518.00 L 598.50 519.00 L 598.50 520.00 L 596.50 522.00 L 596.50 523.00 L 595.50 524.00 L 595.50 525.00 L 594.50 526.00 L 594.50 527.00 L 592.50 529.00 L 592.50 531.00 L 592.00 531.50 L 591.00 531.50 L 590.50 532.00 L 590.50 534.00 L 586.50 538.00 L 586.50 539.00 L 585.50 540.00 L 585.50 541.00 L 583.00 543.50 L 582.00 543.50 L 581.50 544.00 L 581.50 546.00 L 579.50 548.00 L 579.50 549.00 L 579.00 549.50 L 578.00 549.50 L 577.50 550.00 L 577.50 551.00 L 577.00 551.50 L 576.00 551.50 L 575.50 552.00 L 575.50 553.00 L 575.00 553.50 L 574.00 553.50 L 573.50 554.00 L 573.50 555.00 L 566.50 562.00 L 566.50 563.00 L 566.00 563.50 L 565.00 563.50 L 564.50 564.00 L 564.50 565.00 L 564.00 565.50 L 563.00 565.50 L 555.00 573.50 L 554.00 573.50 L 553.50 574.00 L 553.50 575.00 L 553.00 575.50 L 552.00 575.50 L 550.00 577.50 L 549.00 577.50 L 547.00 579.50 L 546.00 579.50 L 545.50 580.00 L 545.50 581.00 L 545.00 581.50 L 544.00 581.50 L 540.00 585.50 L 539.00 585.50 L 538.50 586.00 L 538.50 587.00 L 538.00 587.50 L 537.00 587.50 L 536.50 588.00 L 536.50 589.00 L 536.00 589.50 L 534.00 589.50 L 532.00 591.50 L 531.00 591.50 L 527.00 595.50 L 526.00 595.50 L 525.50 596.00 L 525.50 597.00 L 525.00 597.50 L 524.00 597.50 L 522.00 599.50 L 520.00 599.50 L 519.50 600.00 L 519.50 601.00 L 519.00 601.50 L 518.00 601.50 L 516.00 603.50 L 515.00 603.50 L 513.00 605.50 L 511.00 605.50 L 510.50 606.00 L 510.50 607.00 L 510.00 607.50 L 509.00 607.50 L 507.00 609.50 L 505.00 609.50 L 504.50 610.00 L 504.50 611.00 L 504.00 611.50 L 503.00 611.50 L 501.00 613.50 L 499.00 613.50 L 497.00 615.50 L 496.00 615.50 L 494.00 617.50 L 492.00 617.50 L 491.50 618.00 L 491.50 619.00 L 491.00 619.50 L 490.00 619.50 L 488.00 621.50 L 486.00 621.50 L 484.00 623.50 L 481.00 623.50 L 480.50 624.00 L 480.50 625.00 L 480.00 625.50 L 479.00 625.50 L 477.00 627.50 L 475.00 627.50 L 473.00 629.50 L 471.00 629.50 L 469.00 631.50 L 468.00 631.50 L 466.00 633.50 L 464.00 633.50 L 462.00 635.50 L 460.00 635.50 L 458.00 637.50 L 456.00 637.50 L 454.00 639.50 L 451.00 639.50 L 450.50 640.00 L 450.50 641.00 L 450.00 641.50 L 447.00 641.50 L 446.50 642.00 L 446.50 643.00 L 446.00 643.50 L 443.00 643.50 L 441.00 645.50 L 439.00 645.50 L 437.00 647.50 L 435.00 647.50 L 433.00 649.50 L 431.00 649.50 L 429.00 651.50 L 427.00 651.50 L 425.00 653.50 L 421.00 653.50 L 420.50 654.00 L 420.50 655.00 L 420.00 655.50 L 417.00 655.50 L 415.00 657.50 L 413.00 657.50 L 411.00 659.50 L 408.00 659.50 L 407.50 660.00 L 407.50 661.00 L 407.00 661.50 L 404.00 661.50 L 402.00 663.50 L 399.00 663.50 L 398.50 664.00 L 398.50 665.00 L 398.00 665.50 L 394.00 665.50 L 392.00 667.50 L 389.00 667.50 L 387.00 669.50 L 383.00 669.50 L 381.00 671.50 L 378.00 671.50 L 377.50 672.00 L 377.50 673.00 L 377.00 673.50 L 373.00 673.50 L 371.00 675.50 L 368.00 675.50 L 366.00 677.50 L 361.00 677.50 L 360.50 678.00 L 360.50 679.00 L 360.00 679.50 L 356.00 679.50 L 354.00 681.50 L 350.00 681.50 L 348.00 683.50 L 344.00 683.50 L 342.00 685.50 L 337.00 685.50 L 335.00 687.50 L 331.00 687.50 L 329.00 689.50 L 324.00 689.50 L 323.50 690.00 L 323.50 691.00 L 323.00 691.50 L 317.00 691.50 L 315.00 693.50 L 309.00 693.50 L 307.00 695.50 L 301.00 695.50 L 299.00 697.50 L 293.00 697.50 L 291.00 699.50 L 284.00 699.50 L 282.00 701.50 L 274.00 701.50 L 273.00 702.50 L 272.00 702.50 L 271.00 703.50 L 263.00 703.50 L 261.00 705.50 L 253.00 705.50 L 252.00 706.50 L 251.00 706.50 L 250.00 707.50 L 238.00 707.50 L 237.00 708.50 L 236.00 708.50 L 235.00 709.50 L 229.00 709.50 L 227.00 711.50 L 225.00 711.50 L 223.50 713.00 L 226.00 715.50 L 228.00 715.50 L 230.00 717.50 L 236.00 717.50 L 238.00 719.50 L 241.00 719.50 L 243.00 721.50 L 245.00 721.50 L 247.00 723.50 L 250.00 723.50 L 252.00 725.50 L 256.00 725.50 L 258.00 727.50 L 261.00 727.50 L 263.00 729.50 L 267.00 729.50 L 269.00 731.50 L 274.00 731.50 L 276.00 733.50 L 281.00 733.50 L 283.00 735.50 L 289.00 735.50 L 291.00 737.50 L 297.00 737.50 L 299.00 739.50 L 308.00 739.50 L 309.00 740.50 L 310.00 740.50 L 311.00 741.50 L 318.00 741.50 L 320.00 743.50 L 333.00 743.50 L 335.00 745.50 L 352.00 745.50 L 353.00 746.50 L 354.00 746.50 L 355.00 747.50 L 399.00 747.50 L 399.50 747.00 Z M 548.50 528.00 L 551.50 525.00 L 551.50 523.00 L 553.50 521.00 L 553.50 518.00 L 555.50 516.00 L 555.50 513.00 L 557.50 511.00 L 557.50 506.00 L 558.50 505.00 L 558.50 503.00 L 559.50 502.00 L 559.50 496.00 L 558.50 495.00 L 558.50 493.00 L 557.50 492.00 L 557.50 486.00 L 555.50 484.00 L 555.50 481.00 L 553.50 479.00 L 553.50 478.00 L 551.50 476.00 L 551.50 475.00 L 551.00 474.50 L 550.00 474.50 L 549.00 473.50 L 548.00 473.50 L 547.50 474.00 L 547.50 477.00 L 549.50 479.00 L 549.50 483.00 L 551.50 485.00 L 551.50 494.00 L 552.50 495.00 L 552.50 502.00 L 551.50 503.00 L 551.50 511.00 L 549.50 513.00 L 549.50 521.00 L 547.50 523.00 L 547.50 528.00 L 548.00 528.50 L 548.50 528.00 Z" fill="#D8EAFB" fill-rule="evenodd"/></svg>